<?xml version="1.0" encoding="utf-8"?>
<!-- Generator: Adobe Illustrator 22.0.1, SVG Export Plug-In . SVG Version: 6.00 Build 0)  -->
<svg version="1.1" id="Layer_1" xmlns="http://www.w3.org/2000/svg" xmlns:xlink="http://www.w3.org/1999/xlink" x="0px" y="0px"
	 viewBox="0 0 60 60" style="enable-background:new 0 0 60 60;" xml:space="preserve">
<style type="text/css">
	.st0{fill:none;}
	.st1{opacity:0.5;fill:url(#XMLID_19_);}
	.st2{opacity:0.5;fill:url(#XMLID_24_);}
	.st3{opacity:0.5;fill:url(#XMLID_30_);}
	.st4{opacity:0.5;fill:url(#XMLID_31_);}
	.st5{opacity:0.5;fill:url(#XMLID_32_);}
	.st6{opacity:0.5;fill:url(#XMLID_33_);}
	.st7{opacity:0.42;fill:url(#XMLID_34_);}
	.st8{fill:#0096A9;}
	.st9{fill:#FFFFFF;}
	.st10{fill:#D8DFE1;}
	.st11{fill:none;stroke:#0095A9;stroke-width:2;stroke-linecap:round;stroke-linejoin:round;}
	.st12{fill:#0095A9;}
	.st13{fill:none;stroke:#0095A9;stroke-width:2;stroke-linecap:round;stroke-linejoin:round;stroke-miterlimit:10;}
	.st14{fill:none;stroke:#415364;stroke-width:2;stroke-linecap:round;stroke-linejoin:round;stroke-miterlimit:10;}
</style>
<g id="XMLID_7_">
	<g id="XMLID_9_">
		<g id="XMLID_10_">
			<g>
				<path class="st12" d="M34.3,43.2H22.8c-0.6,0-1-0.4-1-1s0.4-1,1-1h11.5c6.1,0,11-4.9,11-11v-0.4c0-6.1-4.9-11-11-11H15.9
					c-0.6,0-1-0.4-1-1s0.4-1,1-1h18.3c7.2,0,13,5.8,13,13v0.4C47.3,37.4,41.4,43.2,34.3,43.2z"/>
			</g>
			<g>
				<g>
					<polygon class="st12" points="22.6,9.7 23.9,11.1 16.7,17.8 23.9,24.6 22.6,26 13.8,17.8 					"/>
				</g>
			</g>
		</g>
	</g>
	<g id="XMLID_8_">
		<path class="st12" d="M30,60C13.5,60,0,46.6,0,30S13.5,0,30,0s30,13.5,30,30S46.6,60,30,60z M30,2C14.6,2,2,14.6,2,30
			c0,15.4,12.6,28,28,28c15.4,0,28-12.6,28-28C58,14.6,45.5,2,30,2z"/>
	</g>
</g>
</svg>
