<?xml version="1.0" encoding="utf-8"?>
<!-- Generator: Adobe Illustrator 22.0.1, SVG Export Plug-In . SVG Version: 6.00 Build 0)  -->
<svg version="1.1" id="Layer_1" xmlns="http://www.w3.org/2000/svg" xmlns:xlink="http://www.w3.org/1999/xlink" x="0px" y="0px"
	 width="69.6px" height="91.2px" viewBox="0 0 69.6 91.2" style="enable-background:new 0 0 69.6 91.2;" xml:space="preserve">
<style type="text/css">
	.st0{fill:#415364;}
</style>
<g id="Layer_2_1_">
	<g id="Layer_1-2">
		<g id="_Group_">
			<path id="_Compound_Path_" class="st0" d="M49.7,70.1H12.8c-3.7,0-6.7-3-6.7-6.7V27.8c0-3.7,3-6.7,6.7-6.8c0,0,0,0,0,0h36.9
				c3.7,0,6.7,3,6.7,6.7v35.7C56.4,67.1,53.4,70.1,49.7,70.1z M12.8,22.5c-2.9,0-5.2,2.3-5.2,5.2v35.6c0,2.9,2.3,5.2,5.2,5.2
				c0,0,0,0,0,0h36.9c2.9,0,5.2-2.3,5.2-5.2V27.8c0-2.9-2.3-5.2-5.2-5.2H12.8z"/>
			<path id="_Compound_Path_2" class="st0" d="M55.7,76h-49C3,76,0,73,0,69.3V21.9c0-3.7,3-6.7,6.7-6.7h49c3.7,0,6.7,3,6.7,6.7v47.4
				C62.4,73,59.4,76,55.7,76z M6.7,16.6c-2.9,0-5.2,2.3-5.2,5.2v47.5c0,2.9,2.3,5.2,5.2,5.2h49c2.9,0,5.2-2.3,5.2-5.2l0,0V21.9
				c0-2.9-2.3-5.2-5.2-5.2L6.7,16.6z"/>
			<path id="_Path_" class="st0" d="M29.8,65.4L29.8,65.4c-0.4,0-0.6-0.2-0.7-0.5l-4.7-16l-2.3,6.4c-0.1,0.3-0.4,0.5-0.7,0.5H11.4
				c-0.4,0-0.7-0.4-0.7-0.8c0-0.3,0.3-0.6,0.7-0.7h9.5l2.8-8c0.1-0.3,0.4-0.5,0.7-0.5c0.3,0,0.6,0.2,0.7,0.5l4.7,16.2l3.4-7.8
				c0.1-0.3,0.4-0.4,0.7-0.4h9.4c0.4,0,0.7,0.4,0.7,0.8c0,0.3-0.3,0.6-0.7,0.7h-8.9l-4.1,9.2C30.3,65.2,30.1,65.4,29.8,65.4z"/>
			<path id="_Path_2" class="st0" d="M46.9,48.6c-0.4,0-0.7-0.3-0.8-0.7c0,0,0,0,0,0v-6.7c0-0.4,0.2-0.8,0.7-0.8s0.8,0.2,0.8,0.7
				c0,0.1,0,0.1,0,0.2v6.7C47.6,48.3,47.3,48.6,46.9,48.6C46.9,48.6,46.9,48.6,46.9,48.6z"/>
			<path id="_Path_3" class="st0" d="M50.2,45.3h-6.7c-0.4,0-0.8-0.2-0.8-0.7s0.2-0.8,0.7-0.8c0.1,0,0.1,0,0.2,0h6.7
				c0.4,0,0.8,0.2,0.8,0.7s-0.2,0.8-0.7,0.8C50.4,45.3,50.3,45.3,50.2,45.3z"/>
			<path id="_Compound_Path_3" class="st0" d="M46.2,16.6H18c-0.4,0-0.7-0.3-0.8-0.7V4.5c0-2.5,2-4.5,4.5-4.5c0,0,0,0,0,0h20.6
				c2.5,0,4.5,2,4.5,4.5v11.4C46.9,16.3,46.6,16.6,46.2,16.6z M18.8,15.1h26.7V4.5c0-1.7-1.3-3-3-3H21.8c-1.7,0-3,1.3-3,3L18.8,15.1
				z"/>
			<path id="_Compound_Path_4" class="st0" d="M65.1,55.1h-3.4c-0.4,0-0.7-0.3-0.8-0.8V35.6c0-0.4,0.3-0.7,0.8-0.8h3.4
				c2.5,0,4.5,2,4.5,4.5v11.2C69.6,53,67.6,55.1,65.1,55.1z M62.4,53.6h2.6c1.7,0,3-1.3,3-3V39.3c0-1.7-1.3-3-3-3h-2.6V53.6z"/>
			<path id="_Path_4" class="st0" d="M46.2,10.4H26.8c-0.4,0-0.7-0.4-0.7-0.8c0-0.3,0.3-0.6,0.7-0.7h19.3c0.4,0,0.8,0.2,0.8,0.7
				s-0.2,0.8-0.7,0.8C46.3,10.4,46.2,10.4,46.2,10.4z"/>
			<path id="_Path_5" class="st0" d="M46.2,7.3H26.8c-0.4,0-0.7-0.4-0.7-0.8c0-0.3,0.3-0.6,0.7-0.7h19.3c0.4,0,0.8,0.2,0.8,0.7
				c0,0.4-0.2,0.8-0.7,0.8C46.3,7.4,46.2,7.4,46.2,7.3z"/>
			<path id="_Compound_Path_5" class="st0" d="M42.4,91.2H21.8c-2.5,0-4.5-2-4.5-4.5V75.3c0-0.4,0.3-0.7,0.8-0.7h28.2
				c0.4,0,0.7,0.3,0.8,0.7v11.4C46.9,89.1,44.9,91.2,42.4,91.2L42.4,91.2z M18.8,76v10.6c0,1.7,1.3,3,3,3h20.6c1.7,0,3-1.3,3-3V76
				H18.8z"/>
			<path id="_Path_6" class="st0" d="M37.4,82.2H18c-0.4,0-0.8-0.2-0.8-0.7s0.2-0.8,0.7-0.8c0.1,0,0.1,0,0.2,0h19.4
				c0.4,0,0.7,0.4,0.7,0.8C38,81.9,37.7,82.2,37.4,82.2z"/>
			<path id="_Path_7" class="st0" d="M37.4,85.3H18c-0.4,0-0.8-0.2-0.8-0.7s0.2-0.8,0.7-0.8c0.1,0,0.1,0,0.2,0h19.4
				c0.4,0,0.7,0.4,0.7,0.8C38,85,37.7,85.3,37.4,85.3z"/>
		</g>
	</g>
</g>
</svg>
