<?xml version="1.0" encoding="utf-8"?>
<!-- Generator: Adobe Illustrator 22.0.1, SVG Export Plug-In . SVG Version: 6.00 Build 0)  -->
<svg version="1.1" id="Layer_1" xmlns="http://www.w3.org/2000/svg" xmlns:xlink="http://www.w3.org/1999/xlink" x="0px" y="0px"
	 width="540.9px" height="540.9px" viewBox="0 0 540.9 540.9" style="enable-background:new 0 0 540.9 540.9;" xml:space="preserve"
	>
<style type="text/css">
	.st0{fill:#0095A9;}
	.st1{fill:#FFFFFF;}
	.st2{fill:none;stroke:#FFFFFF;stroke-width:2;stroke-linecap:round;stroke-linejoin:round;stroke-miterlimit:10;}
</style>
<g id="XMLID_1_">
	<g id="XMLID_88_">
		<circle id="XMLID_104_" class="st0" cx="270.5" cy="270.5" r="237.8"/>
		<g id="XMLID_89_">
			<path id="XMLID_103_" class="st1" d="M296,211.5c0.7-1.2,1.3-2.3,2-3.4c4.5-7.2,15.1-10.6,22.8-6.3c5.3,3,8,7.6,8.8,13.6
				c0.7,5.6-0.9,10.7-3.5,15.5c-3.7,6.9-9,12.5-15,17.3c-4.1,3.2-8.4,6-12.7,9c-1.4,1-2.9,1.1-4.3,0.2c-8.8-5.4-17-11.5-23.6-19.6
				c-3.8-4.8-6.8-10-7.8-16.1c-1.1-6.3,0.2-12.1,4.8-16.8c4.8-4.9,11.8-6.2,18.2-3.6c4.3,1.8,7.5,4.6,9.5,8.7
				C295.4,210.4,295.6,210.9,296,211.5z"/>
			<g id="XMLID_90_">
				<path id="XMLID_102_" class="st2" d="M342.4,359.8H193.1c-9.4,0-17-7.7-17-17V198.1c0-9.4,7.7-17,17-17h149.3
					c9.4,0,17,7.7,17,17v144.6C359.4,352.1,351.7,359.8,342.4,359.8z"/>
				<path id="XMLID_101_" class="st2" d="M359.4,381.9H176c-12.5,0-22.7-10.2-22.7-22.7V181.7c0-12.5,10.2-22.7,22.7-22.7h183.4
					c12.5,0,22.7,10.2,22.7,22.7v177.6C382.1,371.7,371.9,381.9,359.4,381.9z"/>
				<polyline id="XMLID_100_" class="st2" points="193.2,305.7 230.9,305.7 242.3,273.7 262.3,341.9 278.3,305.8 313.5,305.8 				
					"/>
				<line id="XMLID_99_" class="st2" x1="326.5" y1="253.8" x2="326.5" y2="279"/>
				<line id="XMLID_98_" class="st2" x1="339.1" y1="266.4" x2="313.9" y2="266.4"/>
				<path id="XMLID_97_" class="st2" d="M323.9,116.3c0-7.8-6.4-14.2-14.2-14.2h-77.4c-7.8,0-14.2,6.4-14.2,14.2V159h105.8V116.3z"
					/>
				<path id="XMLID_96_" class="st2" d="M394.8,232.8h-12.7v70.5h12.7c7.8,0,14.2-6.4,14.2-14.2V247
					C409,239.2,402.6,232.8,394.8,232.8z"/>
				<line id="XMLID_95_" class="st2" x1="251.3" y1="135.6" x2="323.9" y2="135.6"/>
				<line id="XMLID_94_" class="st2" x1="251.3" y1="124.1" x2="323.9" y2="124.1"/>
				<path id="XMLID_93_" class="st2" d="M218.2,424.6c0,7.8,6.4,14.2,14.2,14.2h77.4c7.8,0,14.2-6.4,14.2-14.2V382H218.2V424.6z"/>
				<line id="XMLID_92_" class="st2" x1="290.8" y1="405.3" x2="218.2" y2="405.3"/>
				<line id="XMLID_91_" class="st2" x1="290.8" y1="416.8" x2="218.2" y2="416.8"/>
			</g>
		</g>
	</g>
	<g id="XMLID_37_">
		<path id="XMLID_38_" class="st1" d="M270.5,540.9c-72.2,0-140.2-28.1-191.2-79.2C28.1,410.6,0,342.7,0,270.5S28.1,130.3,79.2,79.3
			C130.3,28.1,198.2,0,270.5,0s140.2,28.1,191.2,79.2c51.1,51.1,79.2,119,79.2,191.2s-28.1,140.2-79.2,191.2
			S342.7,540.9,270.5,540.9z M270.5,39.7c-61.6,0-119.6,24-163.2,67.6S39.7,208.8,39.7,270.5s24,119.6,67.6,163.2
			s101.5,67.6,163.2,67.6c61.6,0,119.6-24,163.2-67.6s67.6-101.5,67.6-163.2s-24-119.6-67.6-163.2S332.1,39.7,270.5,39.7z"/>
	</g>
</g>
</svg>
