<?xml version="1.0" encoding="utf-8"?>
<!-- Generator: Adobe Illustrator 22.0.1, SVG Export Plug-In . SVG Version: 6.00 Build 0)  -->
<svg version="1.1" id="Layer_1" xmlns="http://www.w3.org/2000/svg" xmlns:xlink="http://www.w3.org/1999/xlink" x="0px" y="0px"
	 width="309.2px" height="309.2px" viewBox="0 0 309.2 309.2" style="enable-background:new 0 0 309.2 309.2;" xml:space="preserve"
	>
<style type="text/css">
	.st0{fill:#D8DFE1;}
	.st1{fill:none;stroke:#FFFFFF;stroke-width:3;stroke-miterlimit:10;}
</style>
<g id="Layer_2_1_">
	<g id="Layer_1-2">
		<g id="_Group_">
			<circle id="_Path_" class="st0" cx="154.6" cy="154.6" r="154.6"/>
			<g id="_Group_2">
				<path id="_Rectangle_" class="st1" d="M84.3,89.3h140.6c10.5,0,19,8.5,19,19v112c0,10.5-8.5,19-19,19H84.3c-10.5,0-19-8.5-19-19
					v-112C65.3,97.8,73.8,89.3,84.3,89.3z"/>
				<rect id="_Rectangle_2" x="131.9" y="158" class="st1" width="45.4" height="31.6"/>
				<g id="_Group_3">
					<path id="_Path_2" class="st1" d="M178.3,179.8h39.7c14.3,0,26-11.6,26-25.9"/>
					<path id="_Path_3" class="st1" d="M65.3,153.9c2.2,14.3,13.8,26,25.9,25.9h39.5"/>
					<path id="_Path_4" class="st1" d="M184.9,77.4c-2.6-4.7-7.5-7.6-12.9-7.6h-35c-5.4,0-10.3,2.9-12.9,7.6l-6.6,11.9h73.8
						L184.9,77.4z"/>
					<line id="_Path_5" class="st1" x1="191.5" y1="89.3" x2="117.7" y2="89.3"/>
				</g>
			</g>
		</g>
	</g>
</g>
</svg>
