<?xml version="1.0" encoding="utf-8"?>
<!-- Generator: Adobe Illustrator 22.0.1, SVG Export Plug-In . SVG Version: 6.00 Build 0)  -->
<svg version="1.1" id="Layer_1" xmlns="http://www.w3.org/2000/svg" xmlns:xlink="http://www.w3.org/1999/xlink" x="0px" y="0px"
	 width="88.6px" height="66.3px" viewBox="0 0 88.6 66.3" style="enable-background:new 0 0 88.6 66.3;" xml:space="preserve">
<style type="text/css">
	.st0{fill:#415364;}
</style>
<g id="Layer_2_1_">
	<g id="Layer_1-2">
		<g id="_Group_">
			<path id="_Compound_Path_" class="st0" d="M87.7,66.3H53.4c-0.2,0-0.4-0.1-0.6-0.2L5.2,20C5.1,19.8,5,19.6,5,19.4
				c0-0.2,0.1-0.4,0.3-0.6L24,1.6c2.6-2.2,6.4-2.1,8.8,0.3c2.3,2.2,2.5,2.7,3,5.7c0.2,1,0.3,2.2,0.7,3.8c1.3,6.4,4.3,9.6,19.9,13.4
				c0.2,0.1,0.5,0.2,0.5,0.5l10.6,24.2h10.8c0.1,0,10.2,1.3,10.2,16C88.6,65.9,88.2,66.3,87.7,66.3C87.8,66.3,87.7,66.3,87.7,66.3z
				 M53.7,64.7h33.2c-0.3-12.2-8-13.5-8.8-13.6H67c-0.3,0-0.6-0.2-0.7-0.5L55.7,26.3c-16-3.9-19.3-7.7-20.7-14.6
				c-0.3-1.7-0.5-2.9-0.7-3.9C33.8,5,33.8,4.9,31.8,3c-1.8-1.8-4.7-1.9-6.7-0.2L6.9,19.4L53.7,64.7z"/>
			<path id="_Path_" class="st0" d="M55.4,59.3c-0.2,0-0.4-0.1-0.6-0.2L10.6,15c-0.3-0.3-0.3-0.8,0-1.1c0.3-0.3,0.8-0.3,1.1,0
				l44,43.8L87,57.3l0,0c0.5,0,0.8,0.4,0.8,0.8S87.5,59,87,59L55.4,59.3L55.4,59.3z"/>
			<path id="_Path_2" class="st0" d="M47.9,51.8c-0.4,0-0.8-0.4-0.8-0.8c0-0.3,0.2-0.6,0.5-0.7l16.5-6.6c0.4-0.2,0.9,0,1.1,0.4
				c0.2,0.4,0,0.9-0.4,1.1c0,0-0.1,0-0.1,0l-16.5,6.6C48.1,51.8,48,51.8,47.9,51.8z"/>
			<path id="_Path_3" class="st0" d="M42.2,46.1c-0.3,0-0.6-0.2-0.8-0.5c-0.2-0.4,0-0.9,0.4-1c0,0,0,0,0,0l19.2-7.9
				c0.4-0.2,0.9,0,1.1,0.4c0.2,0.4,0,0.9-0.4,1.1c0,0,0,0,0,0L42.5,46C42.4,46,42.3,46.1,42.2,46.1z"/>
			<path id="_Path_4" class="st0" d="M37,41c-0.4,0-0.8-0.4-0.8-0.8c0-0.3,0.2-0.6,0.5-0.8l21.6-9c0.4-0.2,0.9,0,1.1,0.4
				c0,0,0,0,0,0c0.1,0.4-0.1,0.8-0.4,1l-21.6,9C37.3,40.9,37.2,41,37,41z"/>
			<path id="_Path_5" class="st0" d="M13.2,41H0.8c-0.4,0-0.8-0.3-0.9-0.7c0-0.4,0.3-0.8,0.7-0.9c0.1,0,0.1,0,0.2,0h12.4
				c0.4,0,0.8,0.3,0.9,0.7c0,0.4-0.3,0.8-0.7,0.9C13.3,41,13.3,41,13.2,41z"/>
			<path id="_Path_6" class="st0" d="M20.9,48H0.8C0.4,48,0,47.6,0,47.2c0-0.4,0.4-0.8,0.8-0.8h20.1c0.4,0,0.8,0.4,0.8,0.8
				C21.7,47.6,21.3,48,20.9,48z"/>
			<path id="_Path_7" class="st0" d="M27.9,55.6H0.8c-0.5,0-0.8-0.4-0.8-0.8S0.4,54,0.8,54h27.1c0.4,0,0.8,0.3,0.9,0.7
				c0,0.4-0.3,0.8-0.7,0.9C28,55.6,28,55.6,27.9,55.6L27.9,55.6z"/>
		</g>
	</g>
</g>
</svg>
