<?xml version="1.0" encoding="utf-8"?>
<!-- Generator: Adobe Illustrator 22.0.1, SVG Export Plug-In . SVG Version: 6.00 Build 0)  -->
<svg version="1.1" id="Layer_1" xmlns="http://www.w3.org/2000/svg" xmlns:xlink="http://www.w3.org/1999/xlink" x="0px" y="0px"
	 width="198.7px" height="198.7px" viewBox="0 0 198.7 198.7" style="enable-background:new 0 0 198.7 198.7;" xml:space="preserve"
	>
<style type="text/css">
	.st0{fill:none;}
	.st1{fill:#0096A9;}
	.st2{fill:none;stroke:#FFFFFF;stroke-width:3;stroke-miterlimit:10;}
</style>
<rect id="XMLID_26_" x="-290.3" y="-1733.4" class="st0" width="1242" height="2209.1"/>
<path id="svg_2" class="st1" d="M93.4,0.2C80.6,0.9,67.8,4.3,56.3,9.8C28.3,23.3,8.2,49.2,2,79.5c-4.3,21.3-1.5,43.5,7.9,63
	c13.5,27.9,39.4,48,69.7,54.2c21.3,4.3,43.5,1.5,63-7.9c20.1-9.7,36.6-26.2,46.3-46.3c4.6-9.6,7.7-19.8,9-30.3
	c2.5-19.2-0.6-38.7-9-56c-9.7-20.1-26.2-36.6-46.3-46.3C127.3,2.5,110.3-0.8,93.4,0.2z"/>
<path id="XMLID_64_" class="st2" d="M133.9,54.3l-0.1,10.8l-10.5,0.1c-11.9,0.1-11.2,0-12.5,2c-1.3,2.1-1.4,2.8-1.4,11.3v7.7h12.3
	H134v10.2v10.2h-12.3h-12.3v30.5v30.5H97.6H85.8v-30.5v-30.5H75.3H64.8V96.5V86.3h10.5h10.5v-7.4c0-8,0.2-10.5,1.3-14.1
	c2.9-9.9,10.6-17.9,19.6-20.3c3.3-0.9,4.7-1,16.4-1h10.8L133.9,54.3z"/>
</svg>
