<svg xmlns="http://www.w3.org/2000/svg" width="195.63" height="200.12" viewBox="0 0 195.63 200.12"><defs><style>.cls-1{fill:#0095a9;}.cls-2,.cls-3{fill:#fff;}.cls-3{font-size:36px;font-family:AvenirNextCondensed-Medium, Avenir Next Condensed;}.cls-4{letter-spacing:-0.02em;}.cls-5{letter-spacing:-0.01em;}.cls-6{letter-spacing:0em;}</style></defs><title>filter</title><g id="Layer_2" data-name="Layer 2"><g id="Layer_1-2" data-name="Layer 1"><g id="_Group_" data-name="&lt;Group&gt;"><rect id="_Rectangle_" data-name="&lt;Rectangle&gt;" class="cls-1" width="195.63" height="200.12" rx="40" ry="40"/><g id="_Group_2" data-name="&lt;Group&gt;"><path id="_Compound_Path_" data-name="&lt;Compound Path&gt;" class="cls-2" d="M80,44.91a8.66,8.66,0,1,1,8.66-8.66A8.67,8.67,0,0,1,80,44.91Zm0-15a6.38,6.38,0,1,0,6.38,6.38A6.39,6.39,0,0,0,80,29.87Z"/><path id="_Compound_Path_2" data-name="&lt;Compound Path&gt;" class="cls-2" d="M116.26,67.9a8.66,8.66,0,1,1,8.66-8.65A8.66,8.66,0,0,1,116.26,67.9Zm0-15a6.38,6.38,0,1,0,6.38,6.38A6.38,6.38,0,0,0,116.26,52.87Z"/><path id="_Path_" data-name="&lt;Path&gt;" class="cls-2" d="M137.49,38.37H88.18a1.14,1.14,0,1,1,0-2.27h49.31a1.14,1.14,0,1,1,0,2.27Z"/><path id="_Path_2" data-name="&lt;Path&gt;" class="cls-2" d="M72.53,38.37H58.15a1.14,1.14,0,1,1,0-2.27H72.53a1.14,1.14,0,1,1,0,2.27Z"/><path id="_Path_3" data-name="&lt;Path&gt;" class="cls-2" d="M108.74,61.84H58.15a1.14,1.14,0,1,1,0-2.28h50.59a1.14,1.14,0,0,1,0,2.28Z"/><path id="_Path_4" data-name="&lt;Path&gt;" class="cls-2" d="M137.49,61.84H123.78a1.14,1.14,0,0,1,0-2.28h13.71a1.14,1.14,0,0,1,0,2.28Z"/><path id="_Compound_Path_3" data-name="&lt;Compound Path&gt;" class="cls-2" d="M80,87.6a8.66,8.66,0,1,1,8.66-8.66A8.67,8.67,0,0,1,80,87.6Zm0-15a6.38,6.38,0,1,0,6.38,6.38A6.39,6.39,0,0,0,80,72.56Z"/><path id="_Path_5" data-name="&lt;Path&gt;" class="cls-2" d="M137.49,81.06H88.18a1.14,1.14,0,1,1,0-2.27h49.31a1.14,1.14,0,1,1,0,2.27Z"/><path id="_Path_6" data-name="&lt;Path&gt;" class="cls-2" d="M72.53,81.06H58.15a1.14,1.14,0,1,1,0-2.27H72.53a1.14,1.14,0,1,1,0,2.27Z"/></g><g id="_Group_3" data-name="&lt;Group&gt;"><text class="cls-3" transform="translate(58.18 132.87)"><tspan class="cls-4">F</tspan><tspan x="13.93" y="0">ilt</tspan><tspan class="cls-5" x="40.14" y="0">r</tspan><tspan class="cls-6" x="50.18" y="0">os</tspan><tspan x="-28.03" y="40">avanzados</tspan></text></g></g></g></g></svg>