<?xml version="1.0" encoding="utf-8"?>
<!-- Generator: Adobe Illustrator 22.0.1, SVG Export Plug-In . SVG Version: 6.00 Build 0)  -->
<svg version="1.1" id="Layer_1" xmlns="http://www.w3.org/2000/svg" xmlns:xlink="http://www.w3.org/1999/xlink" x="0px" y="0px"
	 width="87.6px" height="95.1px" viewBox="0 0 87.6 95.1" style="enable-background:new 0 0 87.6 95.1;" xml:space="preserve">
<style type="text/css">
	.st0{fill:#415364;}
</style>
<g id="Layer_2_1_">
	<g id="Layer_1-2">
		<g id="_Group_">
			<g id="_Group_2">
				<path id="_Compound_Path_" class="st0" d="M32.7,91.7h-1.9L30.7,91c-0.1-1.1-1-1.9-2.1-1.9h-21c-1.1,0-2,0.8-2.1,1.9l-0.1,0.8
					H3.5c-2,0-3.5-1.6-3.5-3.6c0,0,0,0,0,0V88l2.3-9.4c0.1-1.9,1.6-3.4,3.5-3.4h24.6c1.9,0,3.5,1.5,3.5,3.4l2.3,9.6
					C36.2,90.1,34.6,91.7,32.7,91.7z M32.3,90h0.4c1,0,1.8-0.7,1.8-1.7l-2.3-9.6c0-1-0.8-1.8-1.8-1.8H5.8c-1,0-1.8,0.8-1.8,1.8v0.2
					l-2.3,9.4c0,1,0.8,1.7,1.8,1.7H4c0.5-1.6,2-2.7,3.7-2.7h21C30.3,87.4,31.7,88.4,32.3,90z"/>
				<path id="_Path_" class="st0" d="M28.6,95.1h-21c-2.1,0-3.9-1.7-3.9-3.9c0-0.1,0-0.2,0-0.3L5.5,91v0.1c0,0,0,0.1,0,0.1
					c0,1.2,1,2.1,2.1,2.1h21c1.2,0,2.1-1,2.1-2.1c0,0,0-0.1,0-0.1V91l1.7-0.2c0,0.2,0,0.3,0,0.4C32.5,93.4,30.7,95.1,28.6,95.1z"/>
				<path id="_Path_2" class="st0" d="M5.5,91l-1.7-0.2c0.2-2,1.9-3.4,3.8-3.4h21c2,0,3.6,1.5,3.8,3.4L30.7,91
					c-0.1-1.1-1-1.9-2.1-1.9h-21C6.5,89.1,5.6,89.9,5.5,91z"/>
				<g id="_Group_3">
					<path id="_Compound_Path_2" class="st0" d="M22.7,76.9h-9.3v-3.7c0-2.6,2.1-4.6,4.6-4.6c2.6,0,4.6,2.1,4.6,4.6V76.9z
						 M15.2,75.2H21v-2c-0.1-1.6-1.5-2.8-3.1-2.7c-1.5,0.1-2.6,1.3-2.7,2.7L15.2,75.2z"/>
				</g>
			</g>
			<g id="_Group_4">
				<path id="_Compound_Path_3" class="st0" d="M81.8,26.1H57.2c-1.9,0-3.5-1.5-3.5-3.4l-2.3-9.6c0-2,1.6-3.5,3.5-3.5h1.9l0.1,0.8
					c0.1,1.1,1,1.9,2.1,1.9h21c1.1,0,2-0.8,2.1-1.9l0.1-0.8H84c2,0,3.5,1.6,3.5,3.5v0.2l-2.2,9.4C85.2,24.6,83.7,26.1,81.8,26.1z
					 M53.1,13l2.3,9.6c0,1,0.8,1.8,1.8,1.8l0,0h24.6c1,0,1.8-0.8,1.8-1.8v-0.2l2.3-9.4c-0.1-1-0.9-1.7-1.8-1.7h-0.4
					C83.1,12.9,81.6,14,80,14H59c-1.7,0-3.1-1.1-3.7-2.7h-0.4C54,11.3,53.2,12.1,53.1,13z"/>
				<path id="_Path_3" class="st0" d="M55.2,10.6c0-0.2,0-0.3,0-0.4c0-2.1,1.7-3.8,3.8-3.9h21c2.1,0,3.9,1.7,3.9,3.9
					c0,0.1,0,0.2,0,0.4l-1.7-0.1v-0.1c0,0,0-0.1,0-0.1c0-1.2-1-2.1-2.1-2.1H59c-1.2,0-2.1,1-2.1,2.1c0,0,0,0.1,0,0.1v0.1L55.2,10.6z
					"/>
				<path id="_Path_4" class="st0" d="M80,14H59c-2,0-3.6-1.5-3.8-3.4l1.7-0.2c0.1,1.1,1,1.9,2.1,1.9h21c1.1,0,2-0.8,2.1-1.9
					l1.7,0.2C83.6,12.5,82,14,80,14z"/>
				<g id="_Group_5">
					<path id="_Compound_Path_4" class="st0" d="M69.5,32.8c-2.6,0-4.6-2.1-4.6-4.6v-3.7h9.3v3.7C74.1,30.7,72,32.8,69.5,32.8z
						 M66.6,26.2v2c0,1.6,1.3,2.9,2.9,2.9s2.9-1.3,2.9-2.9v-2H66.6z"/>
				</g>
			</g>
			<path id="_Path_5" class="st0" d="M56.6,76.5c-7.6,0-13.7-6.1-13.7-13.7V13.7c0-6.6-5.4-12-12-12s-12,5.4-12,12v56.6h-1.7V13.7
				C17,6.1,23-0.2,30.6-0.4S44.4,5.4,44.7,13c0,0.2,0,0.5,0,0.7v49.1c0,6.6,5.4,12,12,12s12-5.4,12-12v-31h1.7v31
				C70.4,70.3,64.2,76.5,56.6,76.5C56.6,76.5,56.6,76.5,56.6,76.5z"/>
		</g>
	</g>
</g>
</svg>
