<svg xmlns="http://www.w3.org/2000/svg" width="56.54" height="58.04" viewBox="0 0 56.54 58.04"><defs><style>.cls-1{fill:#435363;}</style></defs><title>Gimnasia </title><g id="Layer_2" data-name="Layer 2"><g id="Layer_1-2" data-name="Layer 1"><g id="_Group_" data-name="&lt;Group&gt;"><g id="_Group_2" data-name="&lt;Group&gt;"><path id="_Compound_Path_" data-name="&lt;Compound Path&gt;" class="cls-1" d="M10.16,16.95a7.46,7.46,0,1,1,7.46-7.46A7.47,7.47,0,0,1,10.16,16.95Zm0-14A6.54,6.54,0,1,0,16.7,9.48,6.55,6.55,0,0,0,10.16,2.94Z"/><path id="_Compound_Path_2" data-name="&lt;Compound Path&gt;" class="cls-1" d="M12.74,58H7.57a2.44,2.44,0,0,1-2.44-2.43l-1-19.17a.73.73,0,0,0-.73-.69H2.44A2.44,2.44,0,0,1,0,33.32V23.57a3.23,3.23,0,0,1,3.23-3.23H17.09a3.23,3.23,0,0,1,3.23,3.23v9.75a2.44,2.44,0,0,1-2.44,2.44h-.95a.73.73,0,0,0-.73.69l-1,19.19A2.43,2.43,0,0,1,12.74,58ZM3.23,21.26A2.31,2.31,0,0,0,.92,23.57v9.75a1.52,1.52,0,0,0,1.52,1.52h.95A1.64,1.64,0,0,1,5,36.39l1,19.19a1.52,1.52,0,0,0,1.52,1.54h5.17a1.52,1.52,0,0,0,1.52-1.52l1-19.22a1.64,1.64,0,0,1,1.64-1.56h.95a1.52,1.52,0,0,0,1.52-1.52V23.57a2.31,2.31,0,0,0-2.31-2.31Z"/><path id="_Path_" data-name="&lt;Path&gt;" class="cls-1" d="M10.16,58a.46.46,0,0,1-.46-.46V36a.46.46,0,1,1,.92,0V57.58A.46.46,0,0,1,10.16,58Z"/></g><path id="_Compound_Path_3" data-name="&lt;Compound Path&gt;" class="cls-1" d="M40.14,32.81A16.41,16.41,0,1,1,56.54,16.41,16.43,16.43,0,0,1,40.14,32.81Zm0-31.9A15.49,15.49,0,1,0,55.63,16.41,15.51,15.51,0,0,0,40.14.92Z"/><g id="_Group_3" data-name="&lt;Group&gt;"><g id="_Group_4" data-name="&lt;Group&gt;"><path id="_Compound_Path_4" data-name="&lt;Compound Path&gt;" class="cls-1" d="M36.73,21.74a5.2,5.2,0,0,1-.22,1.58,3.51,3.51,0,0,1-.64,1.2,2.85,2.85,0,0,1-1,.77,3,3,0,0,1-1.3.27,3.12,3.12,0,0,1-1.33-.27,2.77,2.77,0,0,1-1-.77,3.47,3.47,0,0,1-.62-1.2,5.26,5.26,0,0,1-.21-1.55,6,6,0,0,1,.22-1.62,9,9,0,0,1,.62-1.59l2.41-4.91h1.26l-2.55,5,0,0A2.06,2.06,0,0,1,33.91,18a2.66,2.66,0,0,1,1,.21,2.52,2.52,0,0,1,.91.65A3.35,3.35,0,0,1,36.49,20,5.11,5.11,0,0,1,36.73,21.74Zm-1.16,0a4.86,4.86,0,0,0-.12-1.13,2.85,2.85,0,0,0-.36-.89,1.65,1.65,0,0,0-1.46-.78,1.68,1.68,0,0,0-.84.21,2,2,0,0,0-.65.6,3,3,0,0,0-.42.91,4,4,0,0,0-.15,1.11,3.43,3.43,0,0,0,.55,2,1.74,1.74,0,0,0,1.49.76,1.65,1.65,0,0,0,1.46-.79A3.65,3.65,0,0,0,35.58,21.73Z"/><path id="_Compound_Path_5" data-name="&lt;Compound Path&gt;" class="cls-1" d="M44.47,19.51a18.34,18.34,0,0,1-.12,2.1,7.68,7.68,0,0,1-.47,2,3.83,3.83,0,0,1-1,1.44,2.52,2.52,0,0,1-3.17,0,3.83,3.83,0,0,1-1-1.44,7.89,7.89,0,0,1-.48-2,16.73,16.73,0,0,1,0-4.2,7.9,7.9,0,0,1,.48-2,3.84,3.84,0,0,1,1-1.44,2.52,2.52,0,0,1,3.17,0,3.84,3.84,0,0,1,1,1.44,7.68,7.68,0,0,1,.47,2A18.35,18.35,0,0,1,44.47,19.51Zm-1.17,0q0-.41,0-1t-.09-1.1a9.07,9.07,0,0,0-.2-1.1,4.49,4.49,0,0,0-.35-1,2,2,0,0,0-.54-.68,1.28,1.28,0,0,0-1.54,0,2,2,0,0,0-.54.68,4.77,4.77,0,0,0-.36,1,8.08,8.08,0,0,0-.21,1.1q-.07.56-.09,1.1t0,1q0,.43,0,1t.09,1.09a8.12,8.12,0,0,0,.21,1.09,4.77,4.77,0,0,0,.36,1,2,2,0,0,0,.54.68,1.28,1.28,0,0,0,1.54,0,2,2,0,0,0,.54-.68,4.49,4.49,0,0,0,.35-1,9.13,9.13,0,0,0,.2-1.09q.07-.56.09-1.09T43.3,19.51Z"/></g><g id="_Group_5" data-name="&lt;Group&gt;"><path id="_Path_2" data-name="&lt;Path&gt;" class="cls-1" d="M49.85,11.36H42.56a.46.46,0,0,1,0-.92h7.29a.46.46,0,0,1,0,.92Z"/><path id="_Path_3" data-name="&lt;Path&gt;" class="cls-1" d="M46.21,15a.46.46,0,0,1-.46-.46V7.25a.46.46,0,0,1,.92,0v7.29A.46.46,0,0,1,46.21,15Z"/></g></g></g></g></g></svg>