<svg xmlns="http://www.w3.org/2000/svg" xmlns:xlink="http://www.w3.org/1999/xlink" width="437.3" height="132.5" viewBox="0 0 437.3 132.5"><defs><style>.cls-1{opacity:0.42;isolation:isolate;fill:url(#radial-gradient);}.cls-2{fill:#0096a9;}.cls-3{fill:#fff;}</style><radialGradient id="radial-gradient" cx="156.97" cy="2140.25" r="252.04" gradientTransform="translate(120.65 -2074) scale(0.62 1)" gradientUnits="userSpaceOnUse"><stop offset="0" stop-color="#fff"/><stop offset="0.34" stop-color="#f6f6f6"/><stop offset="0.82" stop-color="#e3e6e8"/><stop offset="1" stop-color="#dbe0e1"/></radialGradient></defs><title>a</title><g id="Layer_2" data-name="Layer 2"><g id="Layer_1-2" data-name="Layer 1"><g id="_Group_" data-name="&lt;Group&gt;"><path id="_Path_" data-name="&lt;Path&gt;" class="cls-1" d="M371.1,132.5H66.2A66.43,66.43,0,0,1,0,66.2H0A66.41,66.41,0,0,1,66.2,0H371.1a66.41,66.41,0,0,1,66.2,66.2h0A66.43,66.43,0,0,1,371.1,132.5Z"/><path id="_Path_2" data-name="&lt;Path&gt;" class="cls-2" d="M247,132.5H66.2A66.43,66.43,0,0,1,0,66.2H0A66.41,66.41,0,0,1,66.2,0H247a66.41,66.41,0,0,1,66.2,66.2h0A66.43,66.43,0,0,1,247,132.5Z"/><g id="_Group_2" data-name="&lt;Group&gt;"><path id="_Path_3" data-name="&lt;Path&gt;" class="cls-3" d="M272,46.3a2.69,2.69,0,0,0-3.8,3.8l16.1,16.1,3.8-3.8Z"/><path id="_Path_4" data-name="&lt;Path&gt;" class="cls-3" d="M268.2,82.3a2.6,2.6,0,0,0,0,3.8,2.66,2.66,0,0,0,3.8,0L288.1,70l-3.8-3.8Z"/><path id="_Path_5" data-name="&lt;Path&gt;" class="cls-3" d="M288.1,62.4l-3.8,3.8,3.8,3.8,1.7-1.7a3,3,0,0,0,0-4.3Z"/></g></g></g></g></svg>