<?xml version="1.0" encoding="utf-8"?>
<!-- Generator: Adobe Illustrator 22.0.1, SVG Export Plug-In . SVG Version: 6.00 Build 0)  -->
<svg version="1.1" id="Layer_1" xmlns="http://www.w3.org/2000/svg" xmlns:xlink="http://www.w3.org/1999/xlink" x="0px" y="0px"
	 width="309.2px" height="309.2px" viewBox="0 0 309.2 309.2" style="enable-background:new 0 0 309.2 309.2;" xml:space="preserve"
	>
<style type="text/css">
	.st0{fill:#D8DFE1;}
	.st1{fill:#FFFFFF;}
</style>
<g id="Layer_2_1_">
	<g id="Layer_1-2">
		<g id="_Group_">
			<circle id="_Path_" class="st0" cx="154.6" cy="154.6" r="154.6"/>
			<g id="_Group_2">
				<g id="_Group_3">
					<path id="_Compound_Path_" class="st1" d="M154.6,99.4c-16.3,0-29.6-13.3-29.6-29.6c0-16.3,13.3-29.6,29.6-29.6
						s29.6,13.3,29.6,29.6c0,0,0,0,0,0C184.2,86.2,170.9,99.4,154.6,99.4z M154.6,45.1c-13.7,0-24.7,11.1-24.7,24.7
						s11.1,24.7,24.7,24.7c13.7,0,24.7-11.1,24.7-24.7C179.3,56.2,168.2,45.1,154.6,45.1z"/>
					<path id="_Compound_Path_2" class="st1" d="M164.6,258.8h-20.1c-5.6,0-10.1-4.5-10.1-10.1l-4-74.3c-0.1-1.2-1-2.1-2.2-2.1h-3.7
						c-5.6,0-10.1-4.5-10.1-10.1v-37.8c0-7.3,5.9-13.1,13.2-13.2h53.8c7.3,0,13.1,5.9,13.2,13.2v37.8c0,5.6-4.5,10.1-10.1,10.1h-3.7
						c-1.2,0-2.1,0.9-2.2,2.1l-4,74.4C174.6,254.4,170.1,258.8,164.6,258.8z M127.7,116.2c-4.6,0-8.3,3.7-8.3,8.3v37.8
						c0,2.9,2.3,5.2,5.2,5.2h3.7c3.7,0,6.8,2.9,7,6.6l4,74.4c-0.1,2.9,2.3,5.3,5.2,5.4c0,0,0,0,0.1,0h20.1c2.9,0,5.2-2.3,5.2-5.2
						l4-74.6c0.2-3.7,3.3-6.7,7-6.6h3.7c2.9,0,5.2-2.3,5.2-5.2v-37.8c0-4.6-3.7-8.3-8.3-8.3L127.7,116.2z"/>
					<path id="_Path_2" class="st1" d="M154.6,258.8c-1.3,0-2.4-1.1-2.4-2.4v-83.7c0-1.3,1.1-2.4,2.4-2.4c1.3,0,2.4,1.1,2.4,2.4
						v83.7C157,257.7,155.9,258.8,154.6,258.8L154.6,258.8z"/>
				</g>
				<path id="_Path_3" class="st1" d="M172.2,268.9h-35.6c-1.3-0.1-2.4-1.2-2.3-2.6c0.1-1.2,1-2.2,2.3-2.3h35.6
					c1.3,0.1,2.4,1.2,2.3,2.6C174.4,267.9,173.4,268.8,172.2,268.9L172.2,268.9z"/>
			</g>
		</g>
	</g>
</g>
</svg>
