<?xml version="1.0" encoding="utf-8"?>
<!-- Generator: Adobe Illustrator 22.0.1, SVG Export Plug-In . SVG Version: 6.00 Build 0)  -->
<svg version="1.1" id="Layer_1" xmlns="http://www.w3.org/2000/svg" xmlns:xlink="http://www.w3.org/1999/xlink" x="0px" y="0px"
	 width="540.9px" height="540.9px" viewBox="0 0 540.9 540.9" style="enable-background:new 0 0 540.9 540.9;" xml:space="preserve"
	>
<style type="text/css">
	.st0{fill:#D8DFE1;}
	.st1{fill:none;stroke:#FFFFFF;stroke-width:2;stroke-linecap:round;stroke-linejoin:round;}
	.st2{fill:#FFFFFF;}
</style>
<g id="Layer_2_1_">
	<g id="Layer_1-2">
		<g id="_Group_">
			<g id="_Group_2">
				<circle id="_Path_" class="st0" cx="270.4" cy="270.4" r="237.7"/>
				<g id="_Group_3">
					<line id="_Path_2" class="st1" x1="204.9" y1="135.7" x2="225.1" y2="192.2"/>
					<line id="_Path_3" class="st1" x1="131.3" y1="206.4" x2="188.7" y2="226.7"/>
					<line id="_Path_4" class="st1" x1="162.1" y1="160" x2="203.2" y2="204.8"/>
					<g id="_Group_4">
						<path id="_Path_5" class="st1" d="M191.4,274.5c0,0-7.5,31.9,23.1,60.4"/>
						<path id="_Path_6" class="st1" d="M244.4,372.2c0,0-42.2-26.3-27-42.6s32.9,10.3,32.9,10.3s40.4,36.7,13.8,54.5
							s-34.3,22.5-78.6,17.2l-63.7-76.3c0,0,60.7-147.9,133.9-79.7s34.6,91.7,14.2,108.6"/>
						<polyline id="_Path_7" class="st1" points="121.8,335.2 88.1,363.7 149.4,438.6 185.6,411.5 						"/>
					</g>
					<line id="_Path_8" class="st1" x1="335.9" y1="405" x2="315.7" y2="348.6"/>
					<line id="_Path_9" class="st1" x1="409.5" y1="334.4" x2="352.1" y2="314"/>
					<line id="_Path_10" class="st1" x1="378.8" y1="380.8" x2="337.6" y2="335.9"/>
					<g id="_Group_5">
						<path id="_Path_11" class="st1" d="M349.5,266.3c0,0,7.5-31.9-23.1-60.4"/>
						<path id="_Path_12" class="st1" d="M296.4,168.6c0,0,42.2,26.3,27,42.6s-33-10.3-33-10.3s-40.4-36.7-13.8-54.5
							s34.3-22.5,78.6-17.2l63.8,76.3c0,0-60.7,147.9-133.9,79.7s-34.6-91.7-14.2-108.6"/>
						<polyline id="_Path_13" class="st1" points="419,205.5 452.8,177 391.4,102.1 355.3,129.2 						"/>
					</g>
				</g>
			</g>
			<g id="_Group_6">
				<path id="_Compound_Path_" class="st2" d="M270.5,540.9C121.1,540.9,0,419.9,0,270.5c0-71.7,28.5-140.5,79.2-191.3
					c105.6-105.6,276.9-105.6,382.5,0s105.6,276.9,0,382.5C411.1,512.6,342.2,541.1,270.5,540.9z M270.5,39.7
					C143,39.7,39.7,143,39.7,270.5c0,61.2,24.3,119.9,67.6,163.2c90.6,89.7,236.7,89,326.3-1.6c89.1-89.9,89.1-234.8,0-324.7
					C390.5,63.9,331.7,39.5,270.5,39.7L270.5,39.7z"/>
			</g>
		</g>
	</g>
</g>
</svg>
