<?xml version="1.0" encoding="utf-8"?>
<!-- Generator: Adobe Illustrator 22.0.1, SVG Export Plug-In . SVG Version: 6.00 Build 0)  -->
<svg version="1.1" id="Layer_1" xmlns="http://www.w3.org/2000/svg" xmlns:xlink="http://www.w3.org/1999/xlink" x="0px" y="0px"
	 width="99.4px" height="91.9px" viewBox="0 0 99.4 91.9" style="enable-background:new 0 0 99.4 91.9;" xml:space="preserve">
<style type="text/css">
	.st0{fill:#415364;}
</style>
<g id="Layer_2_1_">
	<g id="Layer_1-2">
		<g id="_Group_">
			<path id="_Path_" class="st0" d="M37.5,25.7c-0.3,0-0.6-0.2-0.7-0.5L31.4,10c-0.1-0.4,0.1-0.8,0.5-1c0.4-0.1,0.8,0.1,1,0.5
				l5.4,15.2c0.2,0.4,0,0.8-0.4,1c0,0,0,0,0,0C37.7,25.7,37.6,25.7,37.5,25.7z"/>
			<path id="_Path_2" class="st0" d="M27.8,35c-0.1,0-0.2,0-0.3,0l-15.4-5.5c-0.4-0.1-0.6-0.6-0.5-1c0.1-0.4,0.6-0.6,1-0.5L28,33.5
				c0.4,0.1,0.7,0.5,0.6,0.9C28.5,34.8,28.2,35,27.8,35z"/>
			<path id="_Path_3" class="st0" d="M31.7,29.1c-0.2,0-0.4-0.1-0.6-0.2l-11-12c-0.3-0.3-0.3-0.8,0-1.1c0,0,0,0,0,0
				c0.3-0.3,0.8-0.3,1.1,0l11,12c0.3,0.3,0.3,0.8,0,1C32.1,29,31.9,29,31.7,29.1L31.7,29.1z"/>
			<g id="_Group_2">
				<path id="_Path_4" class="st0" d="M34.7,64c-0.2,0-0.4-0.1-0.5-0.2c-8.5-7.8-6.5-16.6-6.4-16.9c0.1-0.4,0.5-0.7,0.9-0.6
					c0.4,0.1,0.7,0.5,0.6,0.9l0,0l0,0c0,0.1-1.8,8.3,6,15.5c0.3,0.3,0.3,0.8,0,1.1C35.1,63.9,34.9,64,34.7,64z"/>
				<path id="_Compound_Path_" class="st0" d="M34.4,85.1c-2.5,0-5-0.2-7.5-0.6c-0.2,0-0.4-0.1-0.5-0.3L9.3,63.8
					c-0.2-0.2-0.2-0.5-0.1-0.8c0.4-1,9.8-23.4,23.2-26.4c4.8-1,9.5,0.5,14,4.7c8.1,7.5,11.9,13.7,11.7,19c-0.2,5-4,8.1-7,10.5
					l-0.6,0.5c0.6,1.2,0.9,2.6,0.8,4c-0.2,1.8-1.2,3.5-2.8,4.4C43.1,83.4,40.5,85.1,34.4,85.1z M27.3,83.1
					c11.5,1.4,13.4,0.1,20.3-4.5c1.2-0.7,2-1.9,2.1-3.3c0.3-4.5-5.8-10.1-5.9-10.2L43.7,65c0,0-2.5-3.6-5.1-3.9c-1,0-2,0.4-2.6,1.2
					c-0.5,0.5-0.8,1.3-0.7,2c0.4,3.1,5.7,7,7.8,8.3c0.4,0.2,0.5,0.7,0.2,1c-0.2,0.4-0.7,0.5-1,0.2l0,0c-0.3-0.2-7.9-4.9-8.5-9.4
					c-0.2-1.2,0.2-2.4,1-3.2c0.9-1.1,2.4-1.8,3.8-1.7c3.1,0.3,5.7,3.8,6.1,4.4c1.9,1.8,3.5,3.8,4.8,6l0.4-0.3c2.8-2.3,6.3-5,6.4-9.4
					c0.2-4.7-3.6-10.7-11.2-17.8c-4.1-3.8-8.4-5.3-12.6-4.3c-11.7,2.6-20.6,22-21.9,25.1L27.3,83.1z"/>
				<path id="_Path_5" class="st0" d="M17.2,91.9c-0.2,0-0.4-0.1-0.6-0.3L0.2,71.5c-0.3-0.3-0.2-0.8,0.1-1.1l9.1-7.7
					c0.3-0.3,0.8-0.2,1.1,0.1c0.3,0.3,0.2,0.8-0.1,1.1c0,0,0,0,0,0l-8.5,7.2l15.6,19l9.1-6.8c0.3-0.2,0.8-0.2,1.1,0.2
					c0.2,0.3,0.2,0.8-0.2,1.1l-9.7,7.3C17.5,91.8,17.4,91.9,17.2,91.9z"/>
			</g>
			<path id="_Path_6" class="st0" d="M67.3,82.8c-0.3,0-0.6-0.2-0.7-0.5l-5.4-15.2c-0.1-0.4,0.1-0.8,0.5-1c0.4-0.1,0.8,0.1,1,0.5
				L68,81.8c0.2,0.4,0,0.8-0.4,1c0,0,0,0,0,0C67.5,82.8,67.4,82.8,67.3,82.8z"/>
			<path id="_Path_7" class="st0" d="M87.1,63.9c-0.1,0-0.2,0-0.3,0l-15.4-5.5c-0.4-0.1-0.6-0.6-0.5-1s0.6-0.6,1-0.5l15.4,5.5
				c0.4,0.1,0.6,0.6,0.5,1C87.7,63.7,87.4,63.9,87.1,63.9z"/>
			<path id="_Path_8" class="st0" d="M78.8,76.3c-0.2,0-0.4-0.1-0.6-0.2l-11-12c-0.3-0.3-0.3-0.8,0-1c0,0,0,0,0,0
				c0.3-0.3,0.8-0.3,1.1,0l11.1,12c0.3,0.3,0.3,0.8,0,1.1C79.2,76.2,79,76.3,78.8,76.3L78.8,76.3z"/>
			<g id="_Group_3">
				<path id="_Path_9" class="st0" d="M71,45.6h-0.2c-0.4-0.1-0.6-0.5-0.6-0.9l0,0c0-0.1,1.8-8.3-6-15.5c-0.3-0.3-0.2-0.8,0.1-1.1
					c0.3-0.2,0.6-0.2,0.9,0c8.4,7.8,6.5,16.5,6.4,16.9C71.6,45.3,71.3,45.6,71,45.6z"/>
				<path id="_Compound_Path_2" class="st0" d="M64.3,55.5c-3.8,0-7.5-1.7-11.1-5c-8.1-7.5-11.9-13.8-11.7-19c0.2-5,4-8.1,7-10.5
					l0.6-0.5c-0.6-1.2-0.9-2.6-0.8-4c0.1-1.8,1.2-3.5,2.8-4.5c7.2-4.8,9.3-6.2,21.6-4.7c0.2,0,0.4,0.1,0.5,0.3L90.2,28
					c0.2,0.2,0.2,0.5,0.1,0.8c-0.4,1-9.8,23.4-23.2,26.4C66.2,55.4,65.2,55.5,64.3,55.5z M49.7,21.8l-0.4,0.3
					c-2.8,2.2-6.3,5-6.4,9.4c-0.2,4.7,3.6,10.7,11.2,17.8c4.1,3.8,8.4,5.3,12.6,4.3c11.7-2.5,20.6-22,21.9-25.1L72.1,8.7
					c-11.5-1.3-13.4-0.1-20.3,4.5c-1.2,0.7-2,1.9-2.1,3.3c-0.3,4.4,5.8,10.1,5.9,10.2c0,0,0.1,0.1,0.1,0.1c0,0,2.5,3.6,5.1,3.9
					c1,0,2-0.4,2.6-1.2c0.5-0.5,0.8-1.3,0.7-2c-0.4-3.1-5.7-7-7.8-8.3c-0.3-0.3-0.4-0.7-0.1-1.1c0.2-0.3,0.6-0.3,0.9-0.2
					c0.3,0.2,7.9,4.9,8.5,9.4c0.2,1.2-0.2,2.4-1,3.3c-0.9,1.1-2.4,1.7-3.8,1.6c-3.2-0.3-5.7-3.9-6.2-4.5C52.7,26,51.1,24,49.7,21.8z
					"/>
				<path id="_Path_10" class="st0" d="M89.6,29.3c-0.2,0-0.4-0.1-0.6-0.3c-0.3-0.3-0.2-0.8,0.1-1.1c0,0,0,0,0,0l8.5-7.2l-15.6-19
					L73,8.6c-0.3,0.2-0.8,0.2-1.1-0.1c-0.2-0.3-0.2-0.8,0.2-1c0,0,0,0,0,0l9.7-7.3c0.3-0.2,0.7-0.2,1,0.1l16.5,20.1
					c0.3,0.3,0.2,0.8-0.1,1l-9.1,7.6C90,29.2,89.8,29.3,89.6,29.3z"/>
			</g>
		</g>
	</g>
</g>
</svg>
