<svg xmlns="http://www.w3.org/2000/svg" width="195.63" height="200.12" viewBox="0 0 195.63 200.12"><defs><style>.cls-1{fill:#0095a9;}.cls-2{font-size:36px;font-family:AvenirNextCondensed-Medium, Avenir Next Condensed;}.cls-2,.cls-4{fill:#fff;}.cls-3{letter-spacing:-0.01em;}</style></defs><title>imgresar</title><g id="Layer_2" data-name="Layer 2"><g id="Layer_1-2" data-name="Layer 1"><g id="_Group_" data-name="&lt;Group&gt;"><rect id="_Rectangle_" data-name="&lt;Rectangle&gt;" class="cls-1" width="195.63" height="200.12" rx="40" ry="40"/><g id="_Group_2" data-name="&lt;Group&gt;"><text class="cls-2" transform="translate(15.32 132.87)">Ing<tspan class="cls-3" x="43.52" y="0">r</tspan><tspan x="53.57" y="0">esar ot</tspan><tspan class="cls-3" x="140" y="0">r</tspan><tspan x="150.04" y="0">a</tspan><tspan x="23.31" y="40">di</tspan><tspan class="cls-3" x="48.94" y="40">r</tspan><tspan x="58.99" y="40">ección</tspan></text></g><g id="_Group_3" data-name="&lt;Group&gt;"><path id="_Compound_Path_" data-name="&lt;Compound Path&gt;" class="cls-4" d="M91.59,95A14.63,14.63,0,0,1,90,95a1.24,1.24,0,1,1,.26-2.47,12.78,12.78,0,0,0,1.3.08h3.54a1.24,1.24,0,1,1,0,2.48H91.59Zm43.28,0h-5a1.24,1.24,0,1,1,0-2.48h5a1.24,1.24,0,1,1,0,2.48Zm-9.93,0h-5a1.24,1.24,0,1,1,0-2.48h5a1.24,1.24,0,1,1,0,2.48ZM115,95h-5a1.24,1.24,0,1,1,0-2.48h5A1.24,1.24,0,0,1,115,95Zm-9.94,0h-5a1.24,1.24,0,1,1,0-2.48h5a1.24,1.24,0,1,1,0,2.48Zm-19.67-1.4a1.24,1.24,0,0,1-.56-.13,9.41,9.41,0,0,1-4.12-3.83,1.24,1.24,0,1,1,2.17-1.2,7.05,7.05,0,0,0,3.06,2.81A1.23,1.23,0,0,1,86.5,93,1.24,1.24,0,0,1,85.39,93.64Zm-4.62-8.11h0a1.25,1.25,0,0,1-1.2-1.28A10.89,10.89,0,0,1,81,78.93a1.24,1.24,0,1,1,2.12,1.28A8.47,8.47,0,0,0,82,84.33,1.24,1.24,0,0,1,80.77,85.53Zm4.88-8.1a1.25,1.25,0,0,1-1.08-.63A1.24,1.24,0,0,1,85,75.11a15.87,15.87,0,0,1,5.08-1.79,1.24,1.24,0,0,1,1.43,1,1.23,1.23,0,0,1-1,1.43,13.53,13.53,0,0,0-4.26,1.49A1.29,1.29,0,0,1,85.65,77.43Zm19.58-1.74a1.24,1.24,0,0,1,0-2.48h.43a14.26,14.26,0,0,0,4-.81,1.24,1.24,0,0,1,.84,2.34,16.25,16.25,0,0,1-4.86,1Zm-5,0h-5a1.24,1.24,0,0,1,0-2.48h5a1.24,1.24,0,0,1,0,2.48Zm14.1-3.38a1.27,1.27,0,0,1-.91-.4,1.25,1.25,0,0,1,.07-1.76,9,9,0,0,0,2.37-3.61,1.24,1.24,0,0,1,2.34.84,11.61,11.61,0,0,1-3,4.6A1.26,1.26,0,0,1,114.36,72.31Zm3.44-9a1.24,1.24,0,0,1-1.25-1.22,12.43,12.43,0,0,0-.79-4.41,1.24,1.24,0,0,1,2.3-.92,14.85,14.85,0,0,1,1,5.3,1.24,1.24,0,0,1-1.23,1.25ZM114,54.52a1.26,1.26,0,0,1-.78-.28,10.54,10.54,0,0,0-4-2,1.24,1.24,0,1,1,.65-2.4,12.93,12.93,0,0,1,4.88,2.42,1.24,1.24,0,0,1-.78,2.21Zm-9.36-2.68h-5a1.24,1.24,0,0,1,0-2.48h5a1.24,1.24,0,0,1,0,2.48Zm-9.94,0h-5a1.24,1.24,0,1,1,0-2.48h5a1.24,1.24,0,1,1,0,2.48Zm-9.93,0h-5a1.24,1.24,0,0,1,0-2.48h5a1.24,1.24,0,0,1,0,2.48Zm-9.94,0h-5a1.24,1.24,0,1,1,0-2.48h5a1.24,1.24,0,1,1,0,2.48Zm-9.93,0h-5a1.24,1.24,0,1,1,0-2.48h5a1.24,1.24,0,1,1,0,2.48Zm-9.94,0h-.7a1.24,1.24,0,0,1,0-2.48H55a1.24,1.24,0,1,1,0,2.48Z"/><g id="_Group_4" data-name="&lt;Group&gt;"><path id="_Compound_Path_2" data-name="&lt;Compound Path&gt;" class="cls-4" d="M143,95.1a1.24,1.24,0,0,1-.84-.33,59.08,59.08,0,0,1-7.69-9.18c-3.53-5.15-7.73-13.1-7.73-21.73a16.26,16.26,0,0,1,32.52,0c0,4.76-1.34,12.4-7.73,21.73a59.37,59.37,0,0,1-7.68,9.18A1.26,1.26,0,0,1,143,95.1Zm0-45a13.78,13.78,0,0,0-13.77,13.77c0,8,4,15.47,7.29,20.33A60.86,60.86,0,0,0,143,92.11a61,61,0,0,0,6.52-8c3.31-4.85,7.26-12.31,7.26-20.28A13.78,13.78,0,0,0,143,50.09Z"/><path id="_Compound_Path_3" data-name="&lt;Compound Path&gt;" class="cls-4" d="M143,70.69A8.08,8.08,0,1,1,151,62.61,8.1,8.1,0,0,1,143,70.69ZM143,57a5.6,5.6,0,1,0,5.6,5.6A5.6,5.6,0,0,0,143,57Z"/></g><path id="_Compound_Path_4" data-name="&lt;Compound Path&gt;" class="cls-4" d="M47.33,51.54a1.25,1.25,0,0,1-.85-.33,39.49,39.49,0,0,1-5-6c-3.3-4.83-5-9.75-5-14.23a10.91,10.91,0,0,1,21.81,0c0,4.48-1.75,9.4-5,14.23a38.83,38.83,0,0,1-5,6A1.24,1.24,0,0,1,47.33,51.54Zm0-29A8.43,8.43,0,0,0,38.91,31c0,7.93,6.13,15.13,8.41,17.53,2.29-2.41,8.42-9.62,8.42-17.53A8.42,8.42,0,0,0,47.33,22.58Z"/><path id="_Compound_Path_5" data-name="&lt;Compound Path&gt;" class="cls-4" d="M47.33,35.49a5.3,5.3,0,1,1,5.29-5.3A5.31,5.31,0,0,1,47.33,35.49Zm0-8.1a2.81,2.81,0,1,0,2.8,2.8A2.81,2.81,0,0,0,47.33,27.39Z"/></g></g></g></g></svg>