<?xml version="1.0" encoding="utf-8"?>
<!-- Generator: Adobe Illustrator 22.0.1, SVG Export Plug-In . SVG Version: 6.00 Build 0)  -->
<svg version="1.1" id="Layer_1" xmlns="http://www.w3.org/2000/svg" xmlns:xlink="http://www.w3.org/1999/xlink" x="0px" y="0px"
	 width="268.7px" height="250px" viewBox="0 0 268.7 250" style="enable-background:new 0 0 268.7 250;" xml:space="preserve">
<style type="text/css">
	.st0{display:none;}
	.st1{fill:#435464;}
	.st2{fill:#4D4D4D;}
	.st3{fill:#263745;}
	.st4{fill:none;}
	.st5{fill:#0096A9;}
	.st6{fill:#151D28;}
</style>
<g id="Layer_1_copy_8">
	<g id="XMLID_18_">
		<path id="XMLID_36_" class="st1" d="M45.1,138.1l19.3-33.6L38.2,58.8c-4.5-7.8-14.6-10.6-22.4-6.1L8.3,57
			C0.4,61.6-2.3,71.7,2.2,79.5l42.3,73.6C42.4,148.5,42.4,142.9,45.1,138.1z"/>
		<path id="XMLID_35_" class="st2" d="M84.4,153.2l-1.5,2.6C83.5,154.9,84,154.1,84.4,153.2z"/>
		<path id="XMLID_34_" class="st1" d="M87.3,64.7l-22.9,39.8l19.3,33.6c2.7,4.8,2.8,10.4,0.6,15.1l23-40L88.1,79.5
			C85.4,74.8,85.3,69.3,87.3,64.7z"/>
		<path id="XMLID_33_" class="st2" d="M46,155.7l-1.5-2.6C44.9,154.1,45.4,154.9,46,155.7z"/>
		<path id="XMLID_32_" class="st2" d="M125.7,61.6l1.8,3.1C127,63.6,126.4,62.6,125.7,61.6z"/>
		<path id="XMLID_31_" class="st3" d="M83.8,138.1l-19.3-33.6l-19.3,33.6c-3.3,4.9-2.8,10.4-0.6,15.1l1.5,2.6l1.8,3.1
			c3.5,6,9.9,8,16.7,8c6.4,0,13.2-2,16.7-8l1.8-3.1l1.5-2.6C86.6,148.5,86.9,142.9,83.8,138.1z"/>
		<path id="XMLID_30_" class="st1" d="M131.1,138.1l19.3-33.6l-22.9-39.8c2,4.6,2,10.1-0.7,14.8l-19.3,33.6l23,40
			C128.3,148.5,128.3,142.9,131.1,138.1z"/>
		<path id="XMLID_29_" class="st2" d="M170.3,153.2l-1.5,2.6C169.4,154.9,169.9,154.1,170.3,153.2z"/>
		<path id="XMLID_28_" class="st2" d="M87.3,64.7l1.8-3.1C88.4,62.6,87.8,63.6,87.3,64.7z"/>
		<path id="XMLID_27_" class="st3" d="M127.5,64.7l-1.8-3.1l-1.6-2.8c-3.5-6-10.1-8-16.7-8c-6.5,0-13.2,2-16.7,8l-1.6,2.8l-1.8,3.1
			c-2.6,6.2-2.1,9.9,0.7,14.8l19.3,33.6l19.3-33.6C129.4,74.8,130.1,70.5,127.5,64.7z"/>
		<path id="XMLID_26_" class="st2" d="M131.9,155.7l-1.5-2.6C130.8,154.1,131.3,154.9,131.9,155.7z"/>
		<path id="XMLID_25_" class="st1" d="M190.4,50.7c-5.5,0.2-10.9,3-13.8,8.1l-26.3,45.7l19.3,33.6c2.7,4.8,2.8,10.4,0.6,15.1
			l6.2-10.8V72.2c-0.3-11.9,2.9-16.9,7.1-19.6c0.1,0,0.1-0.1,0.2-0.1l3-1.2L190.4,50.7z"/>
		<path id="XMLID_24_" class="st3" d="M169.6,137.7l-19.2-33.2l-19.3,33.6c-3.2,5-2.8,10.4-0.6,15.1l1.5,2.6l1.8,3.1
			c3.5,6,9.7,8,16.7,8c6.7,0,13.2-2,16.7-8l1.8-3.1l1.5-2.6C172.5,148.5,172.8,143.3,169.6,137.7z"/>
		<circle id="XMLID_22_" class="st5" cx="197.6" cy="21.1" r="21.1"/>
		<path id="XMLID_21_" class="st1" d="M235.4,57.4c-6.2-2.8-12.7-4.5-19.3-5.4c-7.7-1.1-15-1.5-23.3-1.3c0.3,0,0.6,0.1,0.9,0.1
			l7.7,0.2c7.5,0,13.6,6,13.6,13.5V90c1.4-0.4,2.9-0.6,4.4-0.6c9.3,0,16.8,7.5,16.8,16.8s-7.5,16.8-16.8,16.8c-1.5,0-3-0.2-4.4-0.6
			v29.9c0,7.5-6.1,13.6-13.6,13.7h-11.2c-7.4,0-13.4-5.9-13.6-13.2V236c0,7.7,6.3,14,14,14h10.6c7.7,0,14-6.3,14-14v-70
			c28.5-0.8,52.3-24.3,53.6-54.2C269.7,88.6,256.4,67.1,235.4,57.4z"/>
		<path id="XMLID_20_" class="st3" d="M190.2,166.3h11.2c7.5,0,13.7-5.8,13.7-13.9l-0.1-29.9c-7.2-1.9-12.5-8.5-12.5-16.3
			s5.3-14.3,12.5-16.3V64.4c0-7.9-6.2-13.6-13.7-13.6l-7.7-0.1c1.9,0.4,3.7,1.1,5.4,2.1l7.4,4.5c7.8,4.5,10.7,14.4,6.2,22.2
			l-36.1,62.8v10.5C176.5,160.2,182.8,166.3,190.2,166.3z"/>
		<path id="XMLID_19_" class="st6" d="M183.7,52.5c-4.3,2.3-7.2,7-7.2,12.2v77.6l36.1-62.4c4.7-8.3,1.8-18.3-6.1-22.8l-7.5-4.3
			c-1.7-1-3.5-1.7-5.4-2.1h-3.5C187.8,50.7,185.6,51.5,183.7,52.5z"/>
	</g>
</g>
</svg>
