<svg xmlns="http://www.w3.org/2000/svg" width="61.24" height="46.47" viewBox="0 0 61.24 46.47"><defs><style>.cls-1{fill:#435363;}</style></defs><title>Masajes Deportivos</title><g id="Layer_2" data-name="Layer 2"><g id="Layer_1-2" data-name="Layer 1"><g id="_Group_" data-name="&lt;Group&gt;"><g id="_Group_2" data-name="&lt;Group&gt;"><path id="_Compound_Path_" data-name="&lt;Compound Path&gt;" class="cls-1" d="M57.3,33h-7a4.13,4.13,0,0,1-3-1.05,3.1,3.1,0,0,1-.89-2s0-3.74,0-6.48c0-2.38,0-2.53,1-3.82.18-.24.41-.52.67-.88,1.13-1.53.32-2.79-.39-3.91-.16-.25-.32-.49-.44-.72A4.35,4.35,0,0,1,47,11.17s.5-2.38.88-4.13A2.55,2.55,0,0,1,50.45,5H57.2A2.56,2.56,0,0,1,59.79,7c.38,1.76.88,4.16.88,4.16a4.33,4.33,0,0,1-.29,2.9c-.12.23-.27.47-.44.72-.71,1.11-1.52,2.37-.39,3.91h0c.26.36.49.64.67.88,1,1.29,1,1.43,1,3.82,0,2.75,0,6.44,0,6.48a3.1,3.1,0,0,1-.89,2A4.13,4.13,0,0,1,57.3,33ZM50.41,5.89a1.67,1.67,0,0,0-1.69,1.34c-.38,1.76-.88,4.16-.88,4.16a3.49,3.49,0,0,0,.2,2.3c.1.2.25.42.4.66.74,1.15,1.86,2.89.36,4.93-.27.37-.5.66-.69.9-.85,1.09-.85,1.09-.81,3.25,0,2.76,0,6.47,0,6.51,0,.22.1,2.19,3,2.19h7c2.93,0,3-2,3-2.2,0,0,0-3.74,0-6.5,0-2.16,0-2.16-.81-3.25-.19-.24-.41-.53-.69-.9h0c-1.5-2-.38-3.77.36-4.93.15-.24.29-.46.4-.66a3.44,3.44,0,0,0,.21-2.27S59.29,9,58.91,7.23a1.66,1.66,0,0,0-1.7-1.34h-6.8Z"/><g id="_Group_3" data-name="&lt;Group&gt;"><path id="_Compound_Path_2" data-name="&lt;Compound Path&gt;" class="cls-1" d="M53.82,4.65A1.8,1.8,0,0,1,52,2.85V.45A.45.45,0,0,1,52.47,0h2.69a.45.45,0,0,1,.45.45v2.4A1.8,1.8,0,0,1,53.82,4.65ZM52.92.9V2.85a.9.9,0,1,0,1.79,0V.9Z"/></g><path id="_Path_" data-name="&lt;Path&gt;" class="cls-1" d="M56.42.9H51.21a.45.45,0,0,1,0-.9h5.21a.45.45,0,0,1,0,.9Z"/><path id="_Path_2" data-name="&lt;Path&gt;" class="cls-1" d="M60.31,13.81H47.43a.45.45,0,1,1,0-.9H60.31a.45.45,0,0,1,0,.9Z"/><path id="_Path_3" data-name="&lt;Path&gt;" class="cls-1" d="M58.14,22H53.82a.45.45,0,0,1,0-.9h4.32a.45.45,0,1,1,0,.9Z"/><path id="_Path_4" data-name="&lt;Path&gt;" class="cls-1" d="M55.17,24.4h-4a.45.45,0,1,1,0-.9h4a.45.45,0,0,1,0,.9Z"/><path id="_Path_5" data-name="&lt;Path&gt;" class="cls-1" d="M58.14,28.08h-5a.45.45,0,1,1,0-.9h5a.45.45,0,1,1,0,.9Z"/></g><g id="_Group_4" data-name="&lt;Group&gt;"><path id="_Compound_Path_3" data-name="&lt;Compound Path&gt;" class="cls-1" d="M17.12,15.45H8.38a5,5,0,1,1,0-10.1h8.74a5,5,0,1,1,0,10.1ZM8.38,6.25a4.15,4.15,0,0,0,0,8.3h8.74a4.15,4.15,0,1,0,0-8.3Z"/><path id="_Path_6" data-name="&lt;Path&gt;" class="cls-1" d="M8.44,10.85H3.79a.45.45,0,0,1,0-.9H8.44a.45.45,0,0,1,0,.9Z"/><path id="_Path_7" data-name="&lt;Path&gt;" class="cls-1" d="M21.72,10.85H17.06a.45.45,0,0,1,0-.9h4.66a.45.45,0,0,1,0,.9Z"/></g><path id="_Path_8" data-name="&lt;Path&gt;" class="cls-1" d="M5.69,46.47h0A.45.45,0,0,1,5.24,46L7.31,24.15a.44.44,0,0,1,.49-.41.45.45,0,0,1,.41.49L6.14,46.07A.45.45,0,0,1,5.69,46.47Z"/><path id="_Path_9" data-name="&lt;Path&gt;" class="cls-1" d="M6.83,34.44a.45.45,0,0,1-.27-.81l13.13-9.79a.45.45,0,1,1,.54.72L7.1,34.35A.45.45,0,0,1,6.83,34.44Z"/><g id="_Group_5" data-name="&lt;Group&gt;"><path id="_Path_10" data-name="&lt;Path&gt;" class="cls-1" d="M10.94,20H.45a.45.45,0,0,1,0-.9H10.94a.45.45,0,0,1,0,.9Z"/><g id="_Group_6" data-name="&lt;Group&gt;"><path id="_Path_11" data-name="&lt;Path&gt;" class="cls-1" d="M45,24.64H5a5,5,0,1,1,0-10.1H45a.45.45,0,1,1,0,.9H5a4.15,4.15,0,0,0,0,8.3H45a.45.45,0,1,1,0,.9Z"/></g></g></g></g></g></svg>