<?xml version="1.0" encoding="utf-8"?>
<!-- Generator: Adobe Illustrator 22.0.1, SVG Export Plug-In . SVG Version: 6.00 Build 0)  -->
<svg version="1.1" id="Layer_1" xmlns="http://www.w3.org/2000/svg" xmlns:xlink="http://www.w3.org/1999/xlink" x="0px" y="0px"
	 width="78px" height="66.3px" viewBox="0 0 78 66.3" style="enable-background:new 0 0 78 66.3;" xml:space="preserve">
<style type="text/css">
	.st0{fill:#415364;}
</style>
<g id="Layer_2_1_">
	<g id="Layer_1-2">
		<g id="_Group_">
			<path id="_Compound_Path_" class="st0" d="M39,66.3L39,66.3c-10.1,0-25-8.7-34-25.4C-1.1,29.5-1.6,18.7,3.4,11
				C15.4-7.2,35.9,2.3,39,3.9c3.1-1.6,23.6-11,35.6,7.1c5.1,7.7,4.5,18.5-1.6,29.9C64,57.6,49.1,66.3,39,66.3z M23.3,1.5
				c-7.8,0-14,3.5-18.5,10.3C0,19,0.7,29.3,6.4,40.1C14,54.1,28,64.7,39,64.7l0,0c11,0,25-10.6,32.6-24.6C77.4,29.3,78,19,73.3,11.9
				C68.2,4.2,61,0.8,51.8,1.7c-4.3,0.5-8.6,1.8-12.4,3.8c-0.2,0.1-0.5,0.1-0.8,0c-3.9-2-8.1-3.3-12.4-3.8
				C25.2,1.6,24.3,1.6,23.3,1.5z"/>
			<path id="_Path_" class="st0" d="M42.3,48.9L42.3,48.9c-0.4,0-0.7-0.2-0.8-0.6l-9.2-28.9l-5.5,13.9c-0.1,0.3-0.4,0.5-0.8,0.5h-16
				c-0.4,0-0.8-0.4-0.8-0.8c0-0.4,0.4-0.8,0.8-0.8h15.5l6.1-15.5c0.1-0.3,0.4-0.5,0.8-0.5c0.3,0,0.6,0.2,0.8,0.6L42.5,46l6.9-13.3
				c0.1-0.3,0.4-0.4,0.7-0.4l17.4,0.1c0.4,0,0.8,0.3,0.8,0.8c0,0,0,0,0,0c0,0.4-0.4,0.8-0.8,0.8l0,0l-16.9-0.1L43,48.5
				C42.9,48.7,42.6,48.9,42.3,48.9z"/>
		</g>
	</g>
</g>
</svg>
