<svg xmlns="http://www.w3.org/2000/svg" width="101.9" height="101.9" viewBox="0 0 101.9 101.9"><defs><style>.cls-1{fill:#dadfe1;}.cls-2{fill:#fff;}</style></defs><title>Pilates</title><g id="Layer_2" data-name="Layer 2"><g id="Layer_1-2" data-name="Layer 1"><g id="_Group_" data-name="&lt;Group&gt;"><g id="_Group_2" data-name="&lt;Group&gt;"><circle id="_Path_" data-name="&lt;Path&gt;" class="cls-1" cx="50.95" cy="50.95" r="50.95"/></g><g id="_Group_3" data-name="&lt;Group&gt;"><path id="_Compound_Path_" data-name="&lt;Compound Path&gt;" class="cls-2" d="M50.95,83.78h0c-9.12,0-22.62-7.91-30.76-23-5.51-10.23-6-20.08-1.46-27,10.85-16.45,29.41-7.87,32.22-6.45,2.81-1.43,21.37-10,32.22,6.45,4.58,6.94,4,16.79-1.46,27C73.57,75.88,60.07,83.78,50.95,83.78ZM36.74,25.19c-7,0-12.68,3.14-16.78,9.36C15.68,41,16.24,50.32,21.48,60.06,28.31,72.75,41,82.32,50.95,82.32h0c10,0,22.64-9.57,29.47-22.26,5.24-9.74,5.8-19,1.53-25.52-4.59-7-11.13-10.07-19.38-9.22a31.72,31.72,0,0,0-11.25,3.43.73.73,0,0,1-.72,0,31.72,31.72,0,0,0-11.25-3.43A25.61,25.61,0,0,0,36.74,25.19Z"/><path id="_Path_2" data-name="&lt;Path&gt;" class="cls-2" d="M53.93,68h-.06a.73.73,0,0,1-.64-.51L44.92,41.39,39.93,54a.73.73,0,0,1-.68.46H24.78a.73.73,0,0,1,0-1.46h14l5.56-14a.72.72,0,0,1,.71-.46.73.73,0,0,1,.67.51l8.4,26.4,6.21-12A.73.73,0,0,1,61,53L76.71,53a.73.73,0,0,1,0,1.46h0l-15.3-.07L54.58,67.64A.73.73,0,0,1,53.93,68Z"/></g></g></g></g></svg>