<?xml version="1.0" encoding="utf-8"?>
<!-- Generator: Adobe Illustrator 22.0.1, SVG Export Plug-In . SVG Version: 6.00 Build 0)  -->
<svg version="1.1" id="Layer_1" xmlns="http://www.w3.org/2000/svg" xmlns:xlink="http://www.w3.org/1999/xlink" x="0px" y="0px"
	 width="199.1px" height="198.7px" viewBox="0 0 199.1 198.7" style="enable-background:new 0 0 199.1 198.7;" xml:space="preserve"
	>
<style type="text/css">
	.st0{fill:none;}
	.st1{fill:#0096A9;}
	.st2{fill:none;stroke:#FFFFFF;stroke-width:3;stroke-miterlimit:10;}
</style>
<rect id="XMLID_26_" x="-740.3" y="-1733.4" class="st0" width="1242" height="2209.1"/>
<g id="XMLID_32_">
	<path id="XMLID_49_" class="st1" d="M99.6,198.7C44.7,198.7,0,154.1,0,99.2C0,44.4,44.7,0,99.7,0c54.8,0,99.5,44.8,99.4,99.7
		C199,154.1,154.2,198.7,99.6,198.7z"/>
</g>
<path id="XMLID_93_" class="st2" d="M99.7,84c-8.6,0-15.4,6.5-15.5,15c-0.1,8.4,6.8,15.3,15.3,15.3c8.5,0.1,15.4-6.7,15.5-15.1
	C115,90.8,108.3,84.1,99.7,84z"/>
<path id="XMLID_92_" class="st2" d="M148.4,114.4c8.6,0.1,15.4-6.4,15.6-15c0.2-8.5-6.5-15.3-15.1-15.4c-8.7-0.1-15.4,6.3-15.5,14.9
	C133.3,107.5,139.8,114.3,148.4,114.4z"/>
<path id="XMLID_91_" class="st2" d="M50.3,114.4c8.6,0,15.3-6.6,15.4-15.1c0-8.6-6.5-15.2-15.2-15.2s-15.4,6.5-15.5,15
	C35,107.5,41.8,114.3,50.3,114.4z"/>
</svg>
