<?xml version="1.0" encoding="utf-8"?>
<!-- Generator: Adobe Illustrator 22.0.1, SVG Export Plug-In . SVG Version: 6.00 Build 0)  -->
<svg version="1.1" id="Layer_1" xmlns="http://www.w3.org/2000/svg" xmlns:xlink="http://www.w3.org/1999/xlink" x="0px" y="0px"
	 width="84.8px" height="99.4px" viewBox="0 0 84.8 99.4" style="enable-background:new 0 0 84.8 99.4;" xml:space="preserve">
<style type="text/css">
	.st0{fill:#758592;}
</style>
<g id="Layer_2_1_">
	<g id="Layer_1-2">
		<g id="_Group_">
			<path id="_Compound_Path_" class="st0" d="M5.5,98l-2.9-2.2c-2.8-2.2-3.4-6.2-1.2-9c0,0,0,0,0,0l25.8-33.7c2.2-2.8,6.2-3.3,9-1.2
				l2.9,2.3c2.8,2.2,3.3,6.2,1.2,9L14.5,96.8C12.3,99.6,8.3,100.2,5.5,98C5.5,98,5.5,98,5.5,98z M34.4,54.2
				c-1.5-1.2-3.8-0.9-4.9,0.7L3.7,88.5c-1.2,1.5-0.9,3.8,0.7,4.9l2.9,2.3c1.5,1.2,3.8,0.9,4.9-0.7L38,61.4c1.2-1.5,0.9-3.8-0.7-4.9
				c0,0,0,0,0,0L34.4,54.2z"/>
			<g id="_Group_2">
				<path id="_Compound_Path_2" class="st0" d="M39.8,50.2c-12.3-9.4-14.6-27-5.2-39.3s27-14.6,39.3-5.2S88.4,32.7,79,45
					c0,0,0,0,0,0C69.6,57.3,52,59.6,39.8,50.2z M72,8.1c-11-8.4-26.7-6.3-35.1,4.7s-6.3,26.7,4.7,35.1s26.7,6.3,35.1-4.7
					c0,0,0,0,0,0C85.1,32.2,83,16.5,72,8.1z"/>
				<path id="_Path_" class="st0" d="M41.9,14.7c0.1-0.2,11-15.8,28.1-4.1L68.4,13c-14.7-10-23.7,2.8-24.1,3.4L41.9,14.7z"/>
			</g>
			<path id="_Compound_Path_3" class="st0" d="M39.5,58.2l-7.4-5.7l5.7-7.5l7.4,5.7L39.5,58.2z M36.3,51.9L39,54l2.1-2.8l-2.8-2.1
				L36.3,51.9z"/>
		</g>
	</g>
</g>
</svg>
