<svg xmlns="http://www.w3.org/2000/svg" width="195.63" height="200.12" viewBox="0 0 195.63 200.12"><defs><style>.cls-1{fill:#0095a9;}.cls-2,.cls-3{fill:#fff;}.cls-3{font-size:36px;font-family:AvenirNextCondensed-Medium, Avenir Next Condensed;}.cls-4{letter-spacing:-0.02em;}.cls-5{letter-spacing:-0.01em;}</style></defs><title>ver</title><g id="Layer_2" data-name="Layer 2"><g id="Layer_1-2" data-name="Layer 1"><g id="_Group_" data-name="&lt;Group&gt;"><rect id="_Rectangle_" data-name="&lt;Rectangle&gt;" class="cls-1" width="195.63" height="200.12" rx="40" ry="40"/><g id="_Group_2" data-name="&lt;Group&gt;"><path id="_Compound_Path_" data-name="&lt;Compound Path&gt;" class="cls-2" d="M71.81,91.66l-2.07-1.58a4.55,4.55,0,0,1-.84-6.37L87.07,60a4.55,4.55,0,0,1,6.37-.85l2.07,1.58a4.55,4.55,0,0,1,.84,6.38L78.18,90.82A4.54,4.54,0,0,1,71.81,91.66ZM92.18,60.77a2.48,2.48,0,0,0-3.47.46L70.54,85A2.48,2.48,0,0,0,71,88.44L73.07,90a2.46,2.46,0,0,0,3.47-.46L94.71,65.83a2.48,2.48,0,0,0-.46-3.48Z"/><g id="_Group_3" data-name="&lt;Group&gt;"><path id="_Compound_Path_2" data-name="&lt;Compound Path&gt;" class="cls-2" d="M96,58a19.72,19.72,0,1,1,27.65-3.67A19.74,19.74,0,0,1,96,58Zm22.72-29.67A17.65,17.65,0,1,0,122,53,17.68,17.68,0,0,0,118.69,28.29Z"/><path id="_Path_" data-name="&lt;Path&gt;" class="cls-2" d="M97.46,32.94c.08-.11,7.77-11.12,19.83-2.92l-1.16,1.71c-10.37-7-16.7,2-17,2.37Z"/></g><path id="_Compound_Path_3" data-name="&lt;Compound Path&gt;" class="cls-2" d="M95.83,63.56l-5.22-4,4-5.23,5.22,4ZM93.5,59.18l1.94,1.49,1.51-2-2-1.49Z"/></g><g id="_Group_4" data-name="&lt;Group&gt;"><text class="cls-3" transform="translate(14.95 132.87)"><tspan class="cls-4">V</tspan><tspan x="16.31" y="0">er todos los</tspan><tspan x="6.66" y="40">instructo</tspan><tspan class="cls-5" x="120.53" y="40">r</tspan><tspan x="130.57" y="40">es</tspan></text></g></g></g></g></svg>