<?xml version="1.0" encoding="utf-8"?>
<!-- Generator: Adobe Illustrator 22.0.1, SVG Export Plug-In . SVG Version: 6.00 Build 0)  -->
<svg version="1.1" id="Layer_1" xmlns="http://www.w3.org/2000/svg" xmlns:xlink="http://www.w3.org/1999/xlink" x="0px" y="0px"
	 width="62.9px" height="74.6px" viewBox="0 0 62.9 74.6" style="enable-background:new 0 0 62.9 74.6;" xml:space="preserve">
<style type="text/css">
	.st0{fill:#415364;}
</style>
<g id="Layer_2_1_">
	<g id="Layer_1-2">
		<g id="_Group_">
			<g id="_Group_2">
				<path id="_Compound_Path_" class="st0" d="M30.8,11.2h-1.5c-1.9,0-3.5-1.6-3.5-3.5V0h8.5v7.7C34.3,9.6,32.7,11.2,30.8,11.2z
					 M27.6,1.8v5.8c0,0.9,0.8,1.7,1.7,1.7h1.5c0.9,0,1.7-0.8,1.7-1.7V1.8H27.6z"/>
			</g>
			<path id="_Path_" class="st0" d="M37.2,1.8H23c-0.5,0-0.9-0.4-0.9-0.9S22.5,0,23,0h14.2c0.5,0,0.9,0.4,0.9,0.9S37.7,1.8,37.2,1.8
				L37.2,1.8z"/>
			<g id="_Group_3">
				<path id="_Path_2" class="st0" d="M9.1,39.1c-0.1,0-0.2,0-0.3,0c-0.5-0.1-0.7-0.6-0.6-1.1c0,0,0,0,0,0c0.2-0.8,0.5-1.5,0.8-2.3
					c0.2-0.5,0.7-0.7,1.2-0.5c0,0,0,0,0,0c0.5,0.2,0.7,0.7,0.5,1.2c-0.3,0.7-0.5,1.3-0.7,2C9.8,38.8,9.5,39.1,9.1,39.1z"/>
				<path id="_Compound_Path_2" class="st0" d="M31.1,67.3c-0.5,0-0.9-0.4-0.9-0.9c-0.1-0.5,0.3-0.9,0.8-1c0,0,0,0,0.1,0
					c1.5-0.1,3-0.3,4.4-0.7c0.5-0.1,1,0.2,1.1,0.7c0.1,0.5-0.2,0.9-0.6,1.1C34.3,66.9,32.7,67.2,31.1,67.3L31.1,67.3z M26.4,67h-0.1
					c-1.6-0.3-3.2-0.7-4.7-1.3c-0.5-0.2-0.7-0.7-0.5-1.2c0.2-0.5,0.7-0.7,1.2-0.5c0,0,0,0,0,0c1.4,0.5,2.8,0.9,4.3,1.2
					c0.5,0.1,0.8,0.5,0.8,1C27.3,66.6,26.9,67,26.4,67z M40,65c-0.5,0-0.9-0.4-0.9-0.9c0-0.3,0.2-0.7,0.5-0.8
					c1.3-0.7,2.6-1.5,3.7-2.5c0.4-0.3,1-0.2,1.3,0.1c0.3,0.4,0.3,1-0.1,1.3c-1.3,1-2.6,1.9-4,2.6C40.3,64.9,40.1,65,40,65z
					 M17.9,63.6c-0.2,0-0.4-0.1-0.5-0.2c-1.3-0.9-2.6-1.9-3.7-3.1c-0.4-0.4-0.3-1,0-1.3c0.4-0.4,1-0.3,1.3,0c1,1.1,2.1,2.1,3.4,2.9
					c0.4,0.3,0.5,0.8,0.2,1.3C18.4,63.5,18.2,63.6,17.9,63.6z M47.1,59.1c-0.2,0-0.4-0.1-0.6-0.2c-0.4-0.3-0.5-0.9-0.2-1.3
					c0,0,0,0,0,0c0.9-1.2,1.7-2.4,2.4-3.8c0.2-0.5,0.7-0.7,1.2-0.5s0.7,0.7,0.5,1.2c0,0,0,0.1-0.1,0.1c-0.7,1.4-1.6,2.8-2.6,4.1
					C47.7,59,47.4,59.1,47.1,59.1z M11.4,57c-0.3,0-0.6-0.2-0.8-0.4c-0.9-1.4-1.6-2.8-2.1-4.3c-0.2-0.5,0-1,0.5-1.2
					c0.5-0.2,1,0,1.2,0.5c0,0,0,0.1,0,0.1c0.5,1.4,1.1,2.7,1.9,4c0.3,0.4,0.2,1-0.3,1.2C11.8,57,11.6,57,11.4,57z M51.3,50.9
					c-0.1,0-0.1,0-0.2,0c-0.5-0.1-0.8-0.6-0.7-1.1c0,0,0,0,0,0c0.4-1.4,0.6-2.9,0.6-4.4c0-0.5,0.4-0.9,0.9-0.9c0,0,0,0,0.1,0
					c0.5,0,0.9,0.4,0.9,0.9c-0.1,1.6-0.3,3.2-0.7,4.8C52,50.6,51.7,50.9,51.3,50.9L51.3,50.9z M8.4,48.3c-0.5,0-0.8-0.3-0.9-0.8
					c-0.1-1-0.2-2-0.2-3c0-0.6,0-1.3,0.1-1.9c0-0.5,0.5-0.9,1-0.8s0.9,0.5,0.8,1l0,0c-0.1,0.6-0.1,1.2-0.1,1.7
					c0,0.9,0.1,1.8,0.2,2.7c0.1,0.5-0.3,0.9-0.8,1L8.4,48.3z M51.6,41.6c-0.4,0-0.8-0.3-0.9-0.8c-0.3-1.5-0.7-2.9-1.2-4.3
					c-0.2-0.5,0.1-1,0.6-1.2c0.4-0.1,0.9,0.1,1.1,0.5c0.6,1.5,1.1,3.1,1.3,4.7c0.1,0.5-0.2,1-0.7,1.1c0,0,0,0,0,0L51.6,41.6z
					 M48.1,33.1c-0.3,0-0.6-0.2-0.8-0.4c-0.8-1.2-1.8-2.4-2.9-3.4c-0.4-0.3-0.4-0.9-0.1-1.3s0.9-0.4,1.3-0.1c0,0,0,0,0.1,0.1
					c1.2,1.1,2.2,2.3,3.1,3.7c0.3,0.4,0.2,1-0.2,1.3C48.5,33,48.3,33.1,48.1,33.1z M41.5,26.7c-0.2,0-0.3,0-0.5-0.1
					c-1.3-0.8-2.6-1.4-4-1.9c-0.5-0.2-0.7-0.7-0.6-1.2c0.2-0.5,0.7-0.7,1.1-0.6c1.5,0.5,3,1.2,4.4,2.1c0.4,0.3,0.6,0.8,0.3,1.2
					C42.1,26.6,41.8,26.8,41.5,26.7z"/>
				<path id="_Path_3" class="st0" d="M32.7,23.7h-0.1c-0.7-0.1-1.5-0.1-2.2-0.1c-0.5,0-0.9-0.4-0.9-0.9c0-0.5,0.4-0.9,0.9-0.9l0,0
					c0.8,0,1.6,0.1,2.4,0.2c0.5,0.1,0.8,0.5,0.8,1C33.4,23.4,33.1,23.7,32.7,23.7L32.7,23.7z"/>
			</g>
			<path id="_Path_4" class="st0" d="M54.5,22.1c-0.5,0-0.9-0.4-0.9-0.9c0-0.2,0.1-0.5,0.3-0.6l7.5-7.4c0.3-0.4,0.9-0.4,1.3-0.1
				c0.4,0.3,0.4,0.9,0.1,1.3c0,0,0,0-0.1,0.1l-7.5,7.4C55,22,54.8,22.1,54.5,22.1z"/>
			<path id="_Compound_Path_3" class="st0" d="M30.1,74.6C13.5,74.6,0,61.1,0,44.5s13.5-30.1,30.1-30.1s30.1,13.5,30.1,30.1
				c0,0,0,0,0,0C60.1,61.1,46.7,74.6,30.1,74.6z M30.1,16.3c-15.6,0-28.2,12.6-28.2,28.2s12.6,28.2,28.2,28.2s28.2-12.6,28.2-28.2
				C58.3,28.9,45.6,16.3,30.1,16.3z"/>
			<path id="_Compound_Path_4" class="st0" d="M30.1,50.8c-3.4,0-6.2-2.8-6.2-6.2c0-3.4,2.8-6.2,6.2-6.2c3.4,0,6.2,2.8,6.2,6.2
				c0,0,0,0,0,0C36.3,48,33.5,50.8,30.1,50.8z M30.1,40.1c-2.4,0-4.4,2-4.4,4.4c0,2.4,2,4.4,4.4,4.4c2.4,0,4.4-2,4.4-4.4
				c0,0,0,0,0,0C34.5,42.1,32.5,40.1,30.1,40.1z"/>
			<path id="_Path_5" class="st0" d="M30.1,40.1c-0.5,0-0.9-0.4-0.9-0.9V27.8c0-0.5,0.4-0.9,0.9-0.9c0.5,0,0.9,0.4,0.9,0.9v11.4
				C31,39.7,30.6,40.1,30.1,40.1z"/>
		</g>
	</g>
</g>
</svg>
