<?xml version="1.0" encoding="utf-8"?>
<!-- Generator: Adobe Illustrator 22.0.1, SVG Export Plug-In . SVG Version: 6.00 Build 0)  -->
<svg version="1.1" id="Layer_1" xmlns="http://www.w3.org/2000/svg" xmlns:xlink="http://www.w3.org/1999/xlink" x="0px" y="0px"
	 width="88.2px" height="66.3px" viewBox="0 0 88.2 66.3" style="enable-background:new 0 0 88.2 66.3;" xml:space="preserve">
<style type="text/css">
	.st0{fill:#415364;}
</style>
<g id="Layer_2_1_">
	<g id="Layer_1-2">
		<g id="_Group_">
			<g id="_Group_2">
				<path id="_Compound_Path_" class="st0" d="M82.9,66.3h-67c-0.4,0-0.8-0.4-0.8-0.8c0-0.4,0.4-0.8,0.8-0.8c5.5,0,9.9-4.4,9.9-9.9
					V17.5c0-0.4,0.4-0.8,0.8-0.8h56.3c2.9,0,5.3,2.4,5.3,5.3v39C88.2,63.9,85.8,66.3,82.9,66.3C82.9,66.3,82.9,66.3,82.9,66.3z
					 M21.8,64.7h61.1c2,0,3.7-1.6,3.7-3.7c0,0,0,0,0,0V22c0-2-1.6-3.7-3.7-3.7l0,0H27.4v36.4C27.4,58.8,25.3,62.6,21.8,64.7z"/>
			</g>
			<path id="_Compound_Path_2" class="st0" d="M16.9,66.3h-6.4C4.7,66.3,0,61.6,0,55.8c0,0,0,0,0,0V10.5C0,4.7,4.7,0,10.5,0
				c0,0,0,0,0,0h6.4c5.8,0,10.5,4.7,10.5,10.5v45.3C27.4,61.6,22.7,66.3,16.9,66.3z M10.6,1.6c-4.9,0-8.9,4-8.9,8.9v45.3
				c0,4.9,4,8.9,8.9,8.9h6.4c4.9,0,8.9-4,8.9-8.9V10.5c0-4.9-4-8.9-8.9-8.9L10.6,1.6z"/>
			<g id="_Group_3">
				<path id="_Path_" class="st0" d="M26.6,54.8L26.6,54.8c-0.4,0-0.8-0.4-0.8-0.9c0,0,0,0,0,0v-0.2c0-0.2,0-0.3,0-0.5
					c0-6.3-5.4-11.5-12.1-11.5S1.6,46.9,1.6,53.2c0,0.2,0,0.3,0,0.5v0.2c0,0.4-0.3,0.8-0.8,0.9S0,54.4,0,54v-0.2c0-0.2,0-0.4,0-0.6
					C0,46,6.2,40.1,13.7,40.1S27.4,46,27.4,53.2c0,0.2,0,0.4,0,0.6V54C27.4,54.5,27,54.8,26.6,54.8z"/>
			</g>
			<path id="_Compound_Path_3" class="st0" d="M13.6,63.9c-4.8,0-8.6-4.3-8.6-9.5S8.8,45,13.6,45s8.6,4.3,8.6,9.5
				S18.3,63.9,13.6,63.9z M13.6,46.6c-3.9,0-7,3.5-7,7.9s3.1,7.8,7,7.8s7-3.5,7-7.8S17.5,46.6,13.6,46.6z"/>
			<path id="_Compound_Path_4" class="st0" d="M13.6,59.7C10.7,59.5,8.5,57,8.7,54c0.2-2.6,2.3-4.7,4.9-4.9c2.9,0.2,5.1,2.8,4.9,5.7
				C18.3,57.4,16.2,59.5,13.6,59.7z M13.6,50.8c-2,0.3-3.4,2.1-3.2,4.1c0.2,1.7,1.5,3,3.2,3.2c2-0.3,3.4-2.1,3.2-4.1
				C16.5,52.3,15.2,51,13.6,50.8z"/>
		</g>
	</g>
</g>
</svg>
