<?xml version="1.0" encoding="utf-8"?>
<!-- Generator: Adobe Illustrator 22.0.1, SVG Export Plug-In . SVG Version: 6.00 Build 0)  -->
<svg version="1.1" id="Layer_1" xmlns="http://www.w3.org/2000/svg" xmlns:xlink="http://www.w3.org/1999/xlink" x="0px" y="0px"
	 width="540.9px" height="540.9px" viewBox="0 0 540.9 540.9" style="enable-background:new 0 0 540.9 540.9;" xml:space="preserve"
	>
<style type="text/css">
	.st0{fill:#0095A9;}
	.st1{fill:none;stroke:#FFFFFF;stroke-width:2;stroke-linecap:round;stroke-linejoin:round;}
	.st2{fill:#FFFFFF;}
</style>
<g id="Layer_2_1_">
	<g id="Layer_1-2">
		<g id="_Group_">
			<g id="_Group_2">
				<circle id="_Path_" class="st0" cx="270.5" cy="270.4" r="237.7"/>
				<g id="_Group_3">
					<g id="_Group_4">
						<path id="_Path_2" class="st1" d="M405.1,216H209.9v129.3c-0.1,20.5-16.7,37.1-37.2,37.2h232.5c8.5,0,15.5-7,15.5-15.5V231.5
							C420.6,223,413.7,216,405.1,216z"/>
					</g>
					<path id="_Rectangle_" class="st1" d="M147.4,158.2h35.5c14.9,0,27,12.1,27,27v170.4c0,14.9-12.1,27-27,27h-35.5
						c-14.9,0-27-12.1-27-27V185.1C120.5,170.3,132.6,158.2,147.4,158.2z"/>
					<g id="_Group_5">
						<path id="_Path_3" class="st1" d="M209.7,342.5c0.1-0.9,0.1-1.7,0.1-2.6c0-23.5-20-42.5-44.8-42.5s-44.8,19-44.8,42.6
							c0,0.9,0.1,1.7,0.1,2.6"/>
					</g>
					<ellipse id="_Path_4" class="st1" cx="164.6" cy="344.2" rx="27.1" ry="30"/>
					<ellipse id="_Path_5" class="st1" cx="164.6" cy="344.2" rx="14" ry="15.5"/>
				</g>
			</g>
			<g id="_Group_6">
				<path id="_Compound_Path_" class="st2" d="M270.5,540.9C121.1,540.9,0,419.9,0,270.5c0-71.7,28.5-140.5,79.2-191.3
					c105.6-105.6,276.9-105.6,382.5,0s105.6,276.9,0,382.5C411.1,512.6,342.2,541.1,270.5,540.9z M270.5,39.7
					C143,39.7,39.7,143,39.7,270.5c0,61.2,24.3,119.9,67.6,163.2c90.6,89.7,236.7,89,326.3-1.6c89.1-89.9,89.1-234.8,0-324.7
					C390.5,63.9,331.7,39.5,270.5,39.7L270.5,39.7z"/>
			</g>
		</g>
	</g>
</g>
</svg>
